<?xml version="1.0" encoding="UTF-8" standalone="no"?>
<!-- Created with Inkscape (http://www.inkscape.org/) -->

<svg
   xmlns:dc="http://purl.org/dc/elements/1.1/"
   xmlns:cc="http://creativecommons.org/ns#"
   xmlns:rdf="http://www.w3.org/1999/02/22-rdf-syntax-ns#"
   xmlns:svg="http://www.w3.org/2000/svg"
   xmlns="http://www.w3.org/2000/svg"
   xmlns:xlink="http://www.w3.org/1999/xlink"
   xmlns:sodipodi="http://sodipodi.sourceforge.net/DTD/sodipodi-0.dtd"
   xmlns:inkscape="http://www.inkscape.org/namespaces/inkscape"
   width="793.70081"
   height="1122.5197"
   viewBox="0 0 210 297"
   version="1.1"
   id="svg8"
   inkscape:version="0.92.4 (5da689c313, 2019-01-14)"
   sodipodi:docname="EcheChess.svg"
   inkscape:export-filename="X:\Multimedia\Photo\logos\EcheChess_base.png"
   inkscape:export-xdpi="96"
   inkscape:export-ydpi="96">
  <defs
     id="defs2">
    <linearGradient
       inkscape:collect="always"
       id="linearGradient917">
      <stop
         style="stop-color:#0eff65;stop-opacity:1;"
         offset="0"
         id="stop913" />
      <stop
         style="stop-color:#0eff65;stop-opacity:0;"
         offset="1"
         id="stop915" />
    </linearGradient>
    <linearGradient
       inkscape:collect="always"
       id="linearGradient5102">
      <stop
         style="stop-color:#008080;stop-opacity:1;"
         offset="0"
         id="stop5098" />
      <stop
         style="stop-color:#008080;stop-opacity:0;"
         offset="1"
         id="stop5100" />
    </linearGradient>
    <linearGradient
       inkscape:collect="always"
       xlink:href="#linearGradient5102"
       id="linearGradient5104"
       x1="41.662018"
       y1="550.61169"
       x2="731.33429"
       y2="550.61169"
       gradientUnits="userSpaceOnUse" />
    <linearGradient
       inkscape:collect="always"
       xlink:href="#linearGradient917"
       id="linearGradient919"
       x1="43.947102"
       y1="552.29041"
       x2="727.5592"
       y2="552.29041"
       gradientUnits="userSpaceOnUse" />
    <filter
       inkscape:collect="always"
       style="color-interpolation-filters:sRGB"
       id="filter990"
       x="-1.4481735"
       width="3.8963468"
       y="-1.0244415"
       height="3.048883">
      <feGaussianBlur
         inkscape:collect="always"
         stdDeviation="410.85945"
         id="feGaussianBlur992" />
    </filter>
  </defs>
  <sodipodi:namedview
     id="base"
     pagecolor="#1f435a"
     bordercolor="#666666"
     borderopacity="1.0"
     inkscape:pageopacity="1"
     inkscape:pageshadow="2"
     inkscape:zoom="0.49497475"
     inkscape:cx="474.01558"
     inkscape:cy="686.65576"
     inkscape:document-units="mm"
     inkscape:current-layer="layer1"
     showgrid="false"
     inkscape:window-width="1920"
     inkscape:window-height="1018"
     inkscape:window-x="1672"
     inkscape:window-y="-8"
     inkscape:window-maximized="1"
     inkscape:snap-page="false"
     inkscape:pagecheckerboard="true"
     units="px"
     showborder="true" />
  <metadata
     id="metadata5">
    <rdf:RDF>
      <cc:Work
         rdf:about="">
        <dc:format>image/svg+xml</dc:format>
        <dc:type
           rdf:resource="http://purl.org/dc/dcmitype/StillImage" />
        <dc:title></dc:title>
      </cc:Work>
    </rdf:RDF>
  </metadata>
  <g
     inkscape:label="Layer 1"
     inkscape:groupmode="layer"
     id="layer1">
    <g
       id="g1052"
       transform="translate(0.53453863,6.4144686)">
      <g
         transform="translate(-5.3776793,1.1235804)"
         id="g926">
        <path
           inkscape:connector-curvature="0"
           id="path4166"
           d="m 57.818477,277.54814 c -0.19656,-8.63924 0.10797,-20.21357 0.68504,-26.02987 0.40171,-4.04949 0.93003,-10.95984 1.17404,-15.3563 1.05886,-19.07933 4.99659,-37.55727 10.07835,-47.29304 2.58976,-4.96152 12.15532,-18.0175 20.89336,-28.51718 7.06746,-8.49229 13.844063,-17.77748 15.279673,-20.93592 1.86217,-4.09692 2.23314,-8.0899 1.16944,-12.58696 -1.39436,-5.89501 -2.84174,-7.2541 -8.115813,-7.6207 -6.35772,-0.44191 -13.76991,3.09228 -21.99481,10.48724 -7.89115,7.09493 -14.41218,10.59023 -25.87404,13.86856 -12.0061,3.43403 -18.19147,3.44419 -22.78745,0.0376 -1.21572,-0.90112 -3.76202,-2.51822 -5.65846,-3.59355 -4.20532,-2.38457 -9.29864,-7.93427 -10.16881,-11.07999 -0.31402,-1.13518 -0.72579,-1.96033 -0.91502,-1.83365 -0.5024,0.3363 -0.89371,-3.54026 -0.59823,-5.92631 0.13983,-1.12873 0.41471,-1.94474 0.61096,-1.81339 0.19623,0.1314 0.47441,-0.3956 0.61818,-1.17099 0.36416,-1.96427 7.73378,-10.47825 16.28173,-18.809942 3.92823,-3.82886 8.99798,-9.05105 11.2661,-11.60484 4.58075,-5.15772 5.57812,-7.09736 10.90138,-21.200739 3.34204,-8.854375 5.18854,-12.248301 9.24363,-16.990063 2.51979,-2.946475 3.53021,-3.646387 10.91875,-7.563047 4.47811,-2.373864 9.74613,-4.857956 11.70674,-5.520226 4.15322,-1.402882 6.81989,-3.861056 7.57067,-6.978696 0.25975,-1.078619 0.60477,-4.978085 0.7667,-8.665444 0.39942,-9.095188 0.81568,-10.8834218 3.1527,-13.5436538 2.08674,-2.375347 2.41516,-2.523483 3.36198,-1.516508 0.34607,0.368041 1.5934,1.387551 2.771883,2.26559 3.5113,2.6161398 7.95553,7.7688098 16.37326,18.9831568 l 1.16134,1.547149 10.39772,0.328558 c 9.07089,0.286622 10.94455,0.493967 14.68307,1.624875 7.76604,2.349242 19.91768,7.14834 24.75978,9.778432 4.26898,2.318804 5.3302,3.206125 10.25935,8.577986 6.34701,6.91711 10.42841,13.233356 15.37571,23.79499 3.61984,7.72773 3.44782,6.90124 5.52483,26.54822 1.35427,12.810622 1.81837,21.179722 2.40225,43.320112 0.27677,10.49481 0.70714,22.79465 0.95641,27.33293 0.24927,4.53829 0.5702,24.03236 0.71315,43.32012 0.24622,33.21145 0.40431,68.42716 1.19648,66.24031 -237.004097,0.67784 -50.87185,-0.15181 -74.46572,-0.15181 -69.988206,0 -71.656853,-0.89745 -71.676303,-1.75294 z M 198.41084,273.1558 c 1.04021,-0.82379 1.17922,-7.18508 0.38022,-17.39663 -0.30117,-3.84902 -0.56137,-17.80053 -0.58187,-31.20082 -0.038,-24.76169 -0.27965,-36.56133 -1.58485,-77.35737 -1.05051,-32.83528 -2.04112,-47.417622 -3.82901,-56.364872 -0.38005,-1.90197 -0.93866,-4.85055 -1.24134,-6.55243 -0.69187,-3.89008 -6.17789,-15.76498 -10.36398,-22.433618 -1.69149,-2.694632 -4.81362,-6.823459 -6.93811,-9.175187 -3.43713,-3.80482 -4.46594,-4.591437 -9.3384,-7.140144 -8.48571,-4.438745 -14.31043,-6.788394 -21.86327,-8.81946 -6.03719,-1.623473 -7.72088,-1.872031 -12.89566,-1.903782 -3.27352,-0.02005 -8.01484,0.16978 -10.53624,0.421985 -6.48765,0.648813 -6.72464,0.537395 -8.94846,-4.207033 -1.51787,-3.238312 -2.90274,-5.097941 -7.37316,-9.900852 -4.440393,-4.770649 -5.620833,-5.78753 -6.107473,-5.26115 -0.40459,0.437655 -0.69194,3.148908 -0.87267,8.234357 -0.2871,8.078623 -0.48147,8.943899 -2.77135,12.337613 -1.83682,2.722253 -5.07304,4.744851 -11.48176,7.175917 -8.09097,3.069225 -14.06812,6.586247 -17.37946,10.22626 -4.15419,4.566528 -6.08418,7.908767 -9.51071,16.470254 -1.68,4.19761 -3.97706,9.37884 -5.10454,11.5138 -2.56233,4.85193 -9.02799,12.27593 -19.85358,22.796312 -11.90604,11.57036 -14.82017,15.77727 -13.92342,20.10005 0.48121,2.31962 2.35524,6.04176 3.70386,7.35648 1.06815,1.04129 5.64098,3.9339 11.11982,7.03398 l 4.04728,2.29004 4.04727,-0.31816 c 11.28609,-0.88722 25.54352,-7.07345 33.64566,-14.59869 7.48689,-6.95382 11.55738,-9.48594 18.62493,-11.58602 5.2204,-1.5512 11.397713,-1.2322 14.520303,0.74981 3.44164,2.18453 5.58705,6.99859 7.01098,15.73196 0.67198,4.12146 0.0185,7.88697 -1.90954,11.00385 -1.39,2.24704 -6.83774,9.26513 -22.396163,28.85206 -11.17098,14.06347 -13.01736,16.60857 -14.97279,20.63897 -2.21946,4.57458 -4.75052,11.75701 -5.70507,16.18943 -1.36865,6.35505 -3.58236,23.32018 -3.58236,27.45382 0,2.20215 -0.32698,7.01943 -0.72658,10.70505 -1.0451,9.6389 -1.61007,19.81577 -1.30343,23.4785 0.21642,2.58493 0.44917,3.24748 1.26661,3.60535 0.55081,0.2411 30.90437,0.45311 67.452363,0.47109 52.92228,0.0261 66.61891,-0.10034 67.27595,-0.62072 z M 64.267367,76.665438 c -1.16177,-0.92864 -1.14157,-3.20286 0.0439,-4.93639 2.06524,-3.02022 11.91504,-9.363291 14.53973,-9.363291 1.54201,0 2.73636,1.236869 2.73636,2.833716 0,1.729647 -2.00116,4.077865 -5.90252,6.926155 -6.21465,4.5372 -9.6913,5.91956 -11.41743,4.53981 z"
           style="fill:#020202;stroke-width:0.49553797"
           sodipodi:nodetypes="cccsscsccccccccccccssccssccccccsccscssccccccccsccccscccsscsscsccsccccscccscsccscccccccssccc" />
      </g>
      <path
         transform="scale(0.26458333)"
         inkscape:connector-curvature="0"
         id="path4256"
         d="m 347.21014,62.603334 c -8.94117,12.992625 -4.4634,32.330734 -7.846,47.460936 1.06534,19.10759 -10.13446,35.97984 -27.01579,44.20429 -38.43102,21.25514 -87.21041,33.99164 -108.19083,76.67721 -23.09333,43.819 -38.01956,92.97542 -74.83106,127.99425 -28.16813,33.46094 -64.553898,60.80829 -88.009187,98.11643 -10.738624,26.83483 13.464115,50.84997 35.178571,62.6172 17.037618,8.57554 32.413146,27.04674 53.011136,18.3982 54.92511,-5.84252 103.97802,-34.76023 144.33391,-71.15517 26.79501,-23.71372 66.84651,-37.19866 101.67282,-25.61357 21.90451,14.27151 25.74683,44.40062 28.59374,68.28125 2.31575,32.61909 -27.58025,53.54972 -43.4588,78.5144 -39.69177,54.03529 -88.33671,103.19649 -115.52557,165.28583 -20.98145,60.69434 -22.59552,125.97463 -28.80395,189.34463 -0.5859,30.65128 -6.69563,62.60218 0.49479,92.65318 16.14472,5.9146 35.93562,1.5011 53.31431,3.3902 151.63408,1.7381 303.28185,0.8562 454.92231,1.1187 16.05206,-15.9045 5.05517,-41.69497 6.96828,-61.76802 -6.34757,-196.48769 -2.43685,-393.47226 -18.27408,-589.56012 -3.03072,-49.93526 -17.15363,-98.94388 -43.88394,-141.41741 -17.95255,-31.3786 -41.06175,-61.40553 -75.27386,-76.02937 -46.87817,-24.1293 -99.07157,-42.40479 -152.56957,-36.30549 -15.08392,0.20588 -38.38186,5.74791 -44.132,-13.79796 -12.761,-21.701816 -29.1348,-42.445371 -48.5826,-58.364953 -0.67546,-0.202007 -1.4,-0.257466 -2.09263,-0.04464 z M 278.13647,242.80423 c 11.77783,1.39878 3.49154,16.91851 -2.35491,21.14955 -14.79793,12.52682 -31.77653,29.08769 -52.27679,28.39844 -11.14378,-10.20762 6.31589,-22.62568 13.66072,-29.28572 11.90999,-8.73087 25.38068,-19.93757 40.97098,-20.26227 z"
         style="opacity:0;fill:#1d4158;fill-opacity:0;stroke:#0000ff;stroke-width:2.85714293" />
      <path
         transform="scale(0.26458333)"
         inkscape:connector-curvature="0"
         id="path5063"
         d="m 346.95404,63.025266 c -4.0748,2.843375 -2.61954,9.395425 -3.69928,13.719923 -2.00924,17.525252 -0.53386,35.723501 -5.2086,52.776521 -5.32152,14.34776 -17.37918,25.01802 -31.31867,30.78204 -30.07139,13.72445 -63.69333,23.83041 -86.21115,49.54321 -24.08775,25.57335 -32.68456,60.72609 -47.79962,91.54443 -16.63382,36.74178 -47.83083,63.52778 -75.053535,92.25279 -17.355392,18.50661 -36.906126,35.33749 -51.33649,56.35487 -6.466933,9.2527 -9.249649,21.38077 -4.480148,32.0225 3.485568,11.53403 10.954074,21.59958 21.371041,27.76144 15.609806,10.36549 31.866733,19.8298 48.252542,28.83867 54.89362,-2.87953 108.83356,-24.90969 149.07724,-62.52534 19.36464,-18.35377 42.5943,-33.38286 68.9342,-38.93581 16.8202,-3.37399 36.15293,-4.62108 51.064,5.4138 15.89318,13.01362 19.95188,34.7637 23.69157,53.79866 3.52316,16.00966 1.86261,33.2982 -7.68749,46.98669 -18.1069,26.51287 -39.11501,50.97074 -58.66923,76.44786 -24.46123,31.72152 -50.53844,62.27244 -73.35594,95.21976 -21.03472,35.63506 -31.40666,76.50853 -36.37881,117.30405 -5.46694,35.52003 -6.64632,71.47519 -9.81837,107.19067 -2.53985,29.95225 -6.16465,60.14707 -3.59078,90.2094 0.26043,3.6346 1.57162,8.4864 6.36487,7.0334 61.49599,1.7317 123.03863,0.7983 184.55396,1.2064 104.16608,-0.07 208.34323,0.4563 312.50218,-0.5407 4.49453,-0.3291 11.68562,0.4205 12.25201,-5.8149 3.70429,-28.0202 -1.20862,-56.27377 -1.10058,-84.38796 -1.88429,-104.52441 -1.61044,-209.08971 -5.28909,-313.58005 -2.74619,-80.72007 -3.98207,-161.57158 -10.75334,-242.08599 -3.95616,-36.65554 -8.45874,-74.29662 -25.32353,-107.64107 -16.64714,-35.32621 -36.58776,-70.52175 -66.54906,-96.28939 -18.68248,-12.97253 -39.69429,-22.2685 -60.49471,-31.29303 -25.39227,-9.7881 -51.69315,-18.53106 -78.93198,-20.98829 -24.38958,-1.76482 -48.78893,3.07922 -73.13149,1.31991 -5.9127,-1.70888 -7.43486,-9.16618 -10.73867,-13.63579 -10.64935,-21.8715 -28.47859,-38.984352 -45.29205,-56.124086 -1.78572,-1.319098 -3.46927,-3.746743 -5.851,-3.884588 z M 276.18221,240.13342 c 8.66017,-0.60016 12.80608,10.74102 7.52484,16.98516 -10.18478,14.41906 -25.96118,23.67935 -40.80661,32.64056 -6.31427,2.99834 -15.018,7.9377 -21.62752,3.22183 -6.01249,-7.41195 -1.24546,-18.09413 5.44644,-23.41385 13.70059,-11.89743 29.22296,-22.56468 46.11672,-28.97203 1.09012,-0.29359 2.21736,-0.44954 3.34613,-0.46167 z"
         style="opacity:0;fill:#1d4158;fill-opacity:0;stroke:#0000ff;stroke-width:1.01015258" />
      <path
         transform="scale(0.26458333)"
         inkscape:connector-curvature="0"
         id="path5065"
         d="m 346.95404,63.025266 c -4.0748,2.843375 -2.61954,9.395425 -3.69928,13.719923 -2.00924,17.525252 -0.53386,35.723501 -5.2086,52.776521 -5.32152,14.34776 -17.37918,25.01802 -31.31867,30.78204 -30.07139,13.72445 -63.69333,23.83041 -86.21115,49.54321 -24.08775,25.57335 -32.68456,60.72609 -47.79962,91.54443 -16.63382,36.74178 -47.83083,63.52778 -75.053535,92.25279 -17.355392,18.50661 -36.906126,35.33749 -51.33649,56.35487 -6.466933,9.2527 -9.249649,21.38077 -4.480148,32.0225 3.485568,11.53403 10.954074,21.59958 21.371041,27.76144 15.609806,10.36549 31.866733,19.8298 48.252542,28.83867 54.89362,-2.87953 108.83356,-24.90969 149.07724,-62.52534 19.36464,-18.35377 42.5943,-33.38286 68.9342,-38.93581 16.8202,-3.37399 36.15293,-4.62108 51.064,5.4138 15.89318,13.01362 19.95188,34.7637 23.69157,53.79866 3.52316,16.00966 1.86261,33.2982 -7.68749,46.98669 -18.1069,26.51287 -39.11501,50.97074 -58.66923,76.44786 -24.46123,31.72152 -50.53844,62.27244 -73.35594,95.21976 -21.03472,35.63506 -31.40666,76.50853 -36.37881,117.30405 -5.46694,35.52003 -6.64632,71.47519 -9.81837,107.19067 -2.53985,29.95225 -6.16465,60.14707 -3.59078,90.2094 0.26043,3.6346 1.57162,8.4864 6.36487,7.0334 61.49599,1.7317 123.03863,0.7983 184.55396,1.2064 104.16608,-0.07 208.34323,0.4563 312.50218,-0.5407 4.49453,-0.3291 11.68562,0.4205 12.25201,-5.8149 3.70429,-28.0202 -1.20862,-56.27377 -1.10058,-84.38796 -1.88429,-104.52441 -1.61044,-209.08971 -5.28909,-313.58005 -2.74619,-80.72007 -3.98207,-161.57158 -10.75334,-242.08599 -3.95616,-36.65554 -8.45874,-74.29662 -25.32353,-107.64107 -16.64714,-35.32621 -36.58776,-70.52175 -66.54906,-96.28939 -18.68248,-12.97253 -39.69429,-22.2685 -60.49471,-31.29303 -25.39227,-9.7881 -51.69315,-18.53106 -78.93198,-20.98829 -24.38958,-1.76482 -48.78893,3.07922 -73.13149,1.31991 -5.9127,-1.70888 -7.43486,-9.16618 -10.73867,-13.63579 -10.64935,-21.8715 -28.47859,-38.984352 -45.29205,-56.124086 -1.78572,-1.319098 -3.46927,-3.746743 -5.851,-3.884588 z M 276.18221,240.13342 c 8.66017,-0.60016 12.80608,10.74102 7.52484,16.98516 -10.18478,14.41906 -25.96118,23.67935 -40.80661,32.64056 -6.31427,2.99834 -15.018,7.9377 -21.62752,3.22183 -6.01249,-7.41195 -1.24546,-18.09413 5.44644,-23.41385 13.70059,-11.89743 29.22296,-22.56468 46.11672,-28.97203 1.09012,-0.29359 2.21736,-0.44954 3.34613,-0.46167 z"
         style="opacity:0;fill:#1d4158;fill-opacity:0;stroke:#0000ff;stroke-width:1.01015258" />
      <path
         transform="scale(0.26458333)"
         inkscape:connector-curvature="0"
         id="path5067"
         d="m 346.66738,65.879511 c -5.77357,9.199425 -0.74711,24.003258 -3.75557,34.804689 -0.67911,25.26847 -11.22614,53.2134 -37.76766,60.87112 -38.3158,17.38555 -83.03416,34.10727 -101.84172,75.30075 -21.55237,43.80919 -37.85045,91.72332 -74.52567,125.87055 -28.13651,32.7042 -63.573001,59.9194 -85.987724,97.14843 -9.881721,24.58374 13.860078,46.632 33.597126,56.96803 16.883906,8.21034 31.680288,26.5328 52.106328,19.08917 55.76864,-4.75217 103.9673,-36.70686 145.71954,-71.68777 23.94472,-18.06717 52.16287,-33.50672 83.20312,-28.49889 18.46046,-2.01788 33.39886,11.20757 38.90066,28.00223 10.54903,27.35074 16.78774,62.40957 -4.15734,86.71874 -43.397,61.5124 -95.32646,117.06652 -135.17858,181.01563 -36.21394,80.51094 -33.37065,171.14897 -41.29378,257.29983 0.87438,14.76758 -5.48808,33.30168 3.57614,46.08748 169.4515,3.5821 338.99405,1.4056 508.48213,2.0312 7.55894,-32.8147 -0.2862,-68.11431 0.36274,-101.81359 C 725.44064,775.18499 725.08561,615.18836 716.4603,455.44108 714.19012,380.32088 705.77521,301.35842 662.17518,237.6429 641.78267,201.95693 608.00895,176.37168 570.06752,161.62407 521.56492,137.2068 466.41372,132.75921 413.0207,136.52942 398.05638,139.08223 398.01647,117.30274 388.17967,109.11054 375.65884,94.112054 363.00358,76.446321 346.66738,65.879511 Z M 276.49997,240.63956 c 11.86729,-0.73106 13.6343,15.2621 4.6038,21.01004 -15.64755,13.88565 -33.09325,29.86301 -54.1183,33.64397 -15.42906,0.33054 -8.89342,-20.73352 -0.35157,-26.08817 14.20179,-12.07161 30.98355,-25.90595 49.86607,-28.56584 z"
         style="opacity:0;fill:#1d4158;fill-opacity:0;stroke:#0000ff;stroke-width:2.85714293" />
      <path
         transform="scale(0.26458333)"
         inkscape:connector-curvature="0"
         id="path5069"
         d="m 346.52666,69.031917 c -0.74963,34.217663 -2.83036,78.104483 -40.52455,92.723213 -45.89224,18.17406 -90.99885,45.62544 -109.92187,93.83929 -28.45754,73.78833 -85.52906,128.9169 -136.841523,186.79687 -19.209022,13.65687 -22.087715,38.64478 -4.341518,54.78795 27.319162,33.06818 72.883361,44.43161 112.533481,28.5491 71.96342,-15.797 116.23146,-97.27889 194.01786,-92.25446 38.56423,6.69221 48.49681,57.10685 44.93303,89.65402 -39.38562,85.44873 -122.75309,144.36169 -157.6116,232.42187 -25.24315,86.13325 -28.28381,177.4684 -32.39956,266.64063 5.27727,19.6974 37.31653,8.2154 51.99539,12.888 153.44418,2.046 307.79752,1.8538 460.69433,0.5272 C 723.76024,807.61371 725.26053,578.96083 705.82356,351.64353 686.7499,280.63847 656.06241,200.18669 583.11149,169.42254 529.40541,140.89246 467.9469,137.45561 408.66952,135.52745 388.86806,121.48237 380.75698,93.75949 359.36892,79.583984 355.14684,77.503078 351.18559,68.494849 346.52666,69.031917 Z M 278.46863,239.34442 c 20.9519,2.84984 0.19168,28.4655 -8.88393,33.53794 -12.83027,9.30255 -36.73436,35.19611 -51.70759,18.27009 -4.41774,-25.94882 30.99393,-39.56596 49.56473,-49.18527 3.55473,-1.27838 7.2277,-2.42865 11.02679,-2.62276 z"
         style="opacity:0;fill:#1d4158;fill-opacity:0;stroke:#0000ff;stroke-width:5.71428585" />
      <path
         transform="scale(0.26458333)"
         inkscape:connector-curvature="0"
         id="path5071"
         d="m 346.52666,69.031917 c -0.74963,34.217663 -2.83036,78.104483 -40.52455,92.723213 -45.89224,18.17406 -90.99885,45.62544 -109.92187,93.83929 -28.45754,73.78833 -85.52906,128.9169 -136.841523,186.79687 -19.209022,13.65687 -22.087715,38.64478 -4.341518,54.78795 27.319162,33.06818 72.883361,44.43161 112.533481,28.5491 71.96342,-15.797 116.23146,-97.27889 194.01786,-92.25446 38.56423,6.69221 48.49681,57.10685 44.93303,89.65402 -39.38562,85.44873 -122.75309,144.36169 -157.6116,232.42187 -25.24315,86.13325 -28.28381,177.4684 -32.39956,266.64063 5.27727,19.6974 37.31653,8.2154 51.99539,12.888 153.44418,2.046 307.79752,1.8538 460.69433,0.5272 C 723.76024,807.61371 725.26053,578.96083 705.82356,351.64353 686.7499,280.63847 656.06241,200.18669 583.11149,169.42254 529.40541,140.89246 467.9469,137.45561 408.66952,135.52745 388.86806,121.48237 380.75698,93.75949 359.36892,79.583984 355.14684,77.503078 351.18559,68.494849 346.52666,69.031917 Z M 278.46863,239.34442 c 20.9519,2.84984 0.19168,28.4655 -8.88393,33.53794 -12.83027,9.30255 -36.73436,35.19611 -51.70759,18.27009 -4.41774,-25.94882 30.99393,-39.56596 49.56473,-49.18527 3.55473,-1.27838 7.2277,-2.42865 11.02679,-2.62276 z"
         style="opacity:0;fill:#1d4158;fill-opacity:1;stroke:#0000ff;stroke-width:5.71428585" />
      <path
         transform="scale(0.26458333)"
         inkscape:connector-curvature="0"
         id="path5073"
         d="m 346.68635,63.596885 c -3.87698,3.777987 -1.91371,11.372575 -3.34874,16.406256 -3.03754,20.218559 1.36118,42.994869 -11.26622,60.622199 -13.89085,19.0879 -38.61825,24.5768 -58.85602,34.32199 -28.41115,11.58839 -54.81903,30.58611 -69.38396,58.21344 -20.83699,38.01888 -30.73091,82.6788 -61.97765,114.28935 -30.55557,34.44496 -65.988592,64.5261 -94.165737,101.0491 -8.174689,9.99097 -10.731476,24.03052 -4.815848,35.78685 7.350752,22.4794 31.499043,31.65048 49.763929,43.36688 8.972196,4.03436 16.802406,13.47779 27.464226,9.93926 54.36014,-4.04412 106.20754,-28.94424 145.57426,-66.26807 26.29148,-23.68077 61.76549,-40.78355 97.76678,-35.59835 15.25638,1.81339 27.13854,13.5564 32.09264,27.71763 8.31541,21.7309 13.92001,46.45203 6.7885,69.26897 -11.00529,22.48798 -28.89237,40.76732 -43.52877,60.88489 -30.26292,39.28683 -62.3588,77.25256 -91.1879,117.61193 -27.42027,42.77164 -36.59145,93.77137 -42.0508,143.44517 -4.1456,36.91966 -5.86645,74.04274 -9.2051,111.02499 -0.59142,22.99018 -2.71706,46.30323 -0.13513,69.16473 13.71988,3.0562 28.69758,1.7313 42.86817,2.575 148.35227,1.0379 296.72157,1.4928 445.07267,0.3156 7.85542,-1.6038 19.16612,1.8268 24.91713,-2.9012 5.07974,-20.1996 0.60237,-41.40871 1.0276,-61.96575 -4.0219,-101.48664 -1.91147,-203.08353 -5.29236,-304.58896 -2.77381,-90.4737 -4.26678,-181.07744 -11.38965,-271.34004 -4.03703,-40.0592 -8.58566,-81.23076 -27.53355,-117.47613 -16.93761,-34.0099 -36.9318,-67.87183 -66.07347,-92.86071 -36.30197,-21.94503 -76.08677,-38.57093 -117.35794,-48.54426 -30.65826,-3.67103 -61.73062,-0.46018 -92.49697,-1.36925 -10.58767,-2.62874 -11.47999,-16.29338 -17.71627,-23.60441 -12.22562,-18.074938 -26.89039,-34.807381 -43.53095,-48.898377 -0.6108,-0.341516 -1.30338,-0.66892 -2.02287,-0.588728 z M 275.75164,240.10079 c 10.57463,-1.19848 13.50244,13.95242 6.21094,19.69308 -15.01531,15.55815 -32.87774,29.99894 -54.04019,35.73661 -9.71531,0.40786 -11.58061,-12.31486 -6.80245,-18.81417 10.57591,-15.19262 27.64964,-24.33602 43.6384,-32.99107 3.50568,-1.55725 7.11138,-3.34849 10.9933,-3.62445 z"
         style="opacity:0;fill:#1d4158;fill-opacity:1;stroke:#0000ff;stroke-width:1.42857146" />
      <path
         d="m 343.80469,63.242188 c 3.17908,35.990093 1.58561,81.838252 -37.45508,98.203122 -47.0107,19.65767 -95.23192,47.9377 -113.08203,98.93946 -26.21972,85.64979 -106.61566,135.41938 -152.253908,208.46093 8.644259,38.00574 51.971001,63.60154 89.251948,65.66992 70.56505,-6.19709 121.22639,-62.10981 180.8711,-92.82421 28.51632,-12.48229 76.31896,-16.39535 85.58008,22.46679 16.72831,33.8532 11.00978,74.02859 -14.78125,101.67188 -12.03533,17.62601 -25.46233,34.77484 -39.17774,51.88867 0.59981,-0.11913 1.21514,-0.19585 1.83594,-0.19531 4.31029,0.004 8.50237,2.73288 3.9082,5.97851 v 0.002 c -0.87306,0.61682 1.6693,7.76238 1.26367,9.09179 -0.39214,1.28527 -1.32015,2.38415 -1.60546,3.69727 -0.15564,0.71629 0.80041,-1.228 1.20117,-1.8418 0.0471,0.19197 0.12483,1.86972 0.16406,3.04492 1.08404,1.58582 0.99211,3.38874 1.24609,5.19336 0.0351,0.24945 -0.0419,-0.98234 0.0645,-0.7539 0.48354,1.03906 0.68996,3.07264 0.84765,4.17773 0.0317,1.48108 0.0375,1.81474 -0.004,2.41211 0.30315,0.46323 0.62294,0.95381 0.84179,1.30078 0.3597,1.01099 0.84595,1.98597 1.08008,3.03321 0.23996,1.07326 0.19121,2.19052 0.33203,3.28124 0.13883,1.14717 0.46818,2.26474 0.61719,3.41016 0.17086,1.31332 0.18636,1.91024 0.17774,2.66211 0.0515,0.12983 0.19847,0.81594 0.58984,1.78516 0.10756,0.26645 -0.36877,-1.07598 -0.21094,-0.83594 1.77412,2.69756 1.24608,3.8656 2.10352,6.75781 0.10295,0.41292 0.20564,0.82541 0.30859,1.23828 0.12306,0.23093 0.28622,0.44501 0.36914,0.69336 0.28146,0.84284 0.43995,1.72267 0.71875,2.56641 0.35233,1.06628 0.95656,2.03522 1.34766,3.08789 0.28736,0.77348 0.51065,1.57072 0.76562,2.35547 0.0232,0.1563 0.0934,0.37359 0.16407,0.59179 0.4432,0.57794 0.87651,1.16421 1.23828,1.79493 0.99287,1.73106 1.1555,2.78764 1.68359,4.69336 0.62294,0.86936 0.63514,2.0426 1.23633,2.92187 0.20931,0.30614 0.56145,0.49092 0.78711,0.78516 0.74907,0.97678 1.37691,2.04104 2.10547,3.0332 1.92681,-0.68167 0.44624,1.91601 1.1914,2.41797 0.0524,0.034 0.0259,-0.12356 0.0391,-0.18555 0.21018,0.17802 0.4488,0.3265 0.63086,0.53321 1.14865,1.30329 1.966,2.45416 2.97851,3.82031 1.59742,1.51759 2.35701,3.6034 3.48828,5.42578 0.0567,0.0915 0.22369,0.0463 0.29883,0.12305 0.69577,0.71285 1.28605,1.52216 1.95117,2.26367 0.99534,1.04175 1.51008,2.45114 2.43945,3.54297 0.13304,0.15609 -0.16565,-0.37684 -0.24804,-0.56446 0.35338,0.30917 0.7817,0.55005 1.06054,0.92774 2.17282,2.94281 0.5452,2.56655 2.05274,2.82031 0.55567,0.67313 1.10138,1.35558 1.66797,2.01953 0.58431,0.68481 1.13519,1.40256 1.78515,2.02539 0.24756,0.23736 0.59343,0.34221 0.88086,0.5293 0.47532,0.30954 2.76441,1.85863 3.11719,2.23828 0.7259,0.78127 1.27185,1.71061 1.9082,2.56641 -0.0456,-0.11416 0.10112,0.25962 0.084,0.21679 0.9871,0.94149 2.06087,2.01311 2.5625,2.52149 -0.008,-0.0307 0.002,-0.0579 0.0449,-0.0742 0.24491,-0.0926 0.45305,0.26511 0.66406,0.41992 0.49119,0.36057 1.03575,0.67032 1.44141,1.125 0.60476,0.84098 1.20774,1.68246 1.8125,2.52344 -0.13077,-0.39591 -0.21869,-0.36704 0.0859,-0.26953 2.5319,1.90609 4.62732,4.29935 6.82617,6.5625 -0.13871,-0.17802 -0.60707,-0.65531 -0.41602,-0.53516 1.44509,0.90888 1.76217,1.33159 2.28321,2.04883 -0.008,-0.0224 -3.6e-4,-0.0272 0.0391,0.004 0.62158,0.4896 1.08797,1.1492 1.66601,1.68945 0.25134,0.23471 -0.45531,-0.51433 -0.68359,-0.77149 2.15966,1.09493 2.88783,2.48287 4.35156,4.37305 0.39716,0.51285 -0.34316,-0.52369 0.10547,-0.20508 0.35717,0.25361 0.68796,0.54417 1.03125,0.81641 0.14381,0.18774 0.28423,0.37882 0.42578,0.56836 1.26338,0.4416 3.02932,2.4551 4.29493,3.71094 -0.16971,-0.26835 -0.70424,-1.05406 -0.50782,-0.80469 1.50456,1.91011 1.55831,1.93727 1.86328,3.38672 0.29624,0.6415 0.44847,2.03653 0.33008,1.52148 -0.15756,-0.68606 -0.24692,-1.12625 -0.33008,-1.52148 -0.0367,-0.0794 -0.0744,-0.15204 -0.11523,-0.20313 -1.77419,-2.21903 -1.92276,-1.96444 -3.88086,-2.06445 -9.98699,-0.51005 12.4588,8.77494 2.50977,9.7832 -3.17477,0.32164 -3.87004,0.8938 -6.94922,-1.98828 -0.66491,-0.62234 -0.84831,-1.591 -1.12891,-2.48047 0,0 0,-0.002 0,-0.002 0,0 -0.002,0 -0.002,0 -1.61301,-0.5585 -2.0839,-0.40616 -3.36524,-2.33789 -0.12397,-0.18671 0.38414,0.23043 0.57618,0.3457 -0.55903,-0.44364 -2.00668,-1.57635 -2.38868,-1.9707 -0.46038,-0.47524 -0.82817,-1.03074 -1.24218,-1.54688 0.18103,0.0964 0.58839,0.48915 0.54296,0.28907 -0.0544,-0.24038 -1.24001,-0.95569 -1.35937,-1.03321 -0.65121,-0.51363 -1.30195,-1.02737 -1.95313,-1.54101 0.21468,0.13871 0.82619,0.59365 0.64258,0.41601 -0.68681,-0.66463 -1.45618,-1.23831 -2.16015,-1.88476 -0.0378,-0.034 0.0946,0.0237 0.14257,0.0312 0.27137,0.14702 0.54301,0.29449 0.81446,0.4414 -0.7787,-0.52441 -1.58798,-1.00042 -2.38282,-1.5 -1.87187,-1.92808 -3.64176,-3.98529 -5.7832,-5.625 -1.04946,-0.88138 -2.05731,-1.56721 -2.72851,-2.82617 -0.12586,-0.23584 0.40053,0.44608 0.66797,0.44336 0.2226,-0.002 -0.31627,-0.31405 -0.4961,-0.44531 -3.06191,-2.23416 2.45589,2.18632 -2.63086,-1.99414 0.68508,-0.71154 -0.0509,0.11825 -1.84765,-1.71289 -0.0922,-0.0937 0.46277,0.151 0.39062,0.041 -0.85988,-1.30957 -1.7341,-2.63256 -2.82812,-3.7539 -0.3132,-0.32102 0.14612,0.30666 0.51953,0.94726 0.14679,0.11547 0.29984,0.2212 0.44336,0.3418 0.13553,0.11387 -0.21228,-0.15244 -0.42774,-0.31445 0.17394,0.30079 0.33003,0.59787 0.36914,0.80468 0.0835,0.44232 -0.51848,-0.73527 -0.77734,-1.10351 0.13592,0.0998 0.20288,0.14443 0.4082,0.29883 -0.005,-0.009 -0.0102,-0.0181 -0.0156,-0.0274 -1.65611,-1.30269 -3.49061,-2.32523 -5.03125,-3.80078 -0.73096,-0.70008 -1.34734,-1.51098 -2.00391,-2.28125 -0.46499,-0.54554 -0.90756,-1.10919 -1.36133,-1.66406 -0.70836,-0.90849 -1.48971,-1.76554 -2.125,-2.72656 -0.15587,-0.23585 0.91283,0.66411 0.70313,0.47461 -1.58439,-1.43184 -3.02447,-2.54215 -3.91797,-4.51563 -1.2736,-1.43066 -2.64676,-2.90488 -3.70313,-4.50195 -0.89087,-1.34687 -1.2604,-2.9723 -2.61914,-4.02539 -0.58009,-0.78361 -1.0388,-1.66259 -1.68945,-2.38868 -1.27548,-1.42328 -2.82731,-2.56718 -3.45898,-4.47656 -0.0355,-0.10771 0.17564,0.14461 0.26367,0.2168 -1.34878,-1.86021 -2.84738,-3.83403 -4.01367,-5.78906 -0.82158,-1.37723 -0.9669,-3.05677 -1.75196,-4.44922 -0.0548,-0.30614 -0.0761,-0.61965 -0.16406,-0.91797 -0.11414,-0.38706 -0.39951,-0.72737 -0.43945,-1.12891 -0.0121,-0.1217 0.41821,0.23045 0.33984,0.13672 -0.29938,-0.3583 -0.77205,-0.56155 -1.02344,-0.95508 -1.86614,-2.92142 -1.97137,-2.14967 -1.63672,-3.63476 -0.61328,-2.05327 -1.59713,-3.9362 -2.26171,-5.9707 -0.11468,-0.35112 -0.10032,-0.73558 -0.2168,-1.08594 -1.57799,-4.74758 -0.39526,-0.25396 -1.22656,-3.59571 -0.17193,-0.80783 -0.42858,-1.60054 -0.51563,-2.42187 -0.0666,-0.62854 0.66289,0.12501 0.49414,-0.17774 -0.49776,-0.89309 -1.167,-1.68269 -1.66406,-2.57617 -0.66511,-1.19557 0.27333,-3.0574 -1.07422,-3.96093 0.1835,-2.69417 -1.05302,-5.26731 -0.68945,-7.9668 -0.31412,-0.51451 -0.6273,-1.02846 -0.94141,-1.54297 0.24658,0.19162 0.84398,0.86796 0.73828,0.57422 -1.91589,-5.3243 -2.47552,-3.33215 -2.0664,-6.79688 -0.14332,-1.64768 -0.6438,-3.07792 -0.99024,-4.72265 -0.034,-0.16101 0.38957,0.5209 0.33008,0.36718 -0.12775,-0.32994 -0.3269,-0.6277 -0.49023,-0.9414 -0.36087,-1.07713 -0.79463,-2.13146 -1.08204,-3.23047 -0.0813,-0.31068 -0.009,-0.64377 -0.0156,-0.96484 -0.0406,-1.85038 -0.164,-3.71002 0.11133,-5.54883 -0.63164,-2.89319 -0.73204,-5.92066 -1.12305,-8.82813 -0.0147,-0.10908 -0.0157,-0.20876 -0.0254,-0.31445 -48.6691,60.48449 -99.73331,121.1017 -106.05469,201.27148 -10.70829,70.35549 -13.31352,142.51462 -15.16797,212.99023 170.69465,-0.5372 342.28708,1.0728 512.42188,-0.8027 C 723.14919,807.17795 727.12289,576.79744 704.93164,348.15234 689.19609,261.0366 632.09571,174.95674 541.99023,152.6582 497.52006,136.83665 449.72649,138.35135 403.26758,138.72266 387.42352,111.26832 370.04881,80.387408 343.80469,63.242188 Z m -68.2461,176.462892 c 0.3486,-0.002 0.6977,0.005 1.04688,0.0215 21.51421,3.08962 1.52004,28.61917 -8.04688,34.01758 -12.76506,9.03844 -35.27045,34.25809 -50.07812,19.16406 -4.31231,-26.47774 29.24985,-43.58644 49.85547,-52.14258 2.36041,-0.5871 4.78246,-1.04454 7.22265,-1.06054 z m 140.87305,506.70898 c 0.13992,0.17926 0.27459,0.36217 0.41992,0.53711 0.0937,0.11301 -0.0637,-0.31293 -0.18164,-0.40039 -0.0637,-0.0474 -0.15142,-0.0922 -0.23828,-0.13672 z m -4.6582,8.32227 c 0.0296,0.0559 0.0562,0.11138 0.084,0.1582 0.0125,-0.01 0.0343,-0.008 0.0488,-0.0156 -0.0445,-0.0474 -0.0881,-0.0954 -0.13281,-0.14258 z m 0.53906,0.0742 c 0.0362,0.0251 0.0718,0.0504 0.10742,0.0762 0.0761,0.0194 0.15094,0.0489 0.22852,0.0762 -0.10781,-0.0473 -0.2358,-0.11113 -0.33594,-0.15234 z m -0.16602,0.45507 c 0.28552,0.30238 0.69773,0.68227 0.52735,0.47461 -0.10553,-0.12861 -0.22169,-0.2486 -0.33203,-0.37304 -0.0729,-0.032 -0.13103,-0.0664 -0.19532,-0.10157 z"
         style="opacity:0;fill:#1d4158;fill-opacity:1;stroke:#0000ff;stroke-width:5.71428585"
         transform="scale(0.26458333)"
         id="path5075"
         inkscape:connector-curvature="0" />
      <path
         transform="scale(0.26458333)"
         inkscape:connector-curvature="0"
         id="path5086"
         d="m 347.21821,63.142225 c -4.41029,2.333637 -2.84685,9.085574 -3.93802,13.204982 -1.79023,17.094743 -1.08638,34.616763 -4.5299,51.432943 -5.29563,14.97254 -17.63269,26.33091 -32.03239,32.4892 -30.9161,14.07256 -65.56896,24.76664 -88.24072,51.6487 -23.43286,26.92166 -31.96691,62.59946 -47.90347,93.81665 -17.03065,34.72529 -46.87909,60.40802 -73.032291,88.05482 -17.210677,18.31007 -36.480473,35.03168 -50.930402,55.72619 -4.558796,7.20499 -8.840939,15.35231 -6.822476,24.16277 1.675642,10.87493 7.332075,21.08943 14.307864,29.47199 17.706693,13.88789 37.961325,24.20915 57.371535,35.40071 35.61876,-1.42837 70.44127,-11.83039 101.74734,-28.69936 20.38611,-10.04729 37.59343,-24.99573 54.45934,-39.94169 16.09433,-14.31209 34.87693,-25.68688 55.84285,-31.13137 17.8296,-5.40425 38.34653,-6.61174 55.15357,2.3874 16.25916,11.49957 20.9585,32.61268 24.89166,50.98855 4.03221,17.59791 3.36403,37.39446 -7.72442,52.47088 -22.8383,32.11661 -48.32975,62.25882 -72.40817,93.44953 -20.29692,26.51143 -42.30352,51.83204 -60.64645,79.7742 -12.0777,21.74277 -20.8413,45.38997 -26.71251,69.53548 -9.61291,44.68654 -13.75325,90.30025 -16.3847,135.86483 -2.38675,34.89594 -7.85733,69.90892 -4.9896,104.92957 0.0138,4.5824 2.60984,9.8123 8.00569,9.019 59.90477,1.5156 119.85822,0.6217 179.78206,0.9124 108.00102,-0.1969 216.01389,0.1333 324.00643,-1.0038 6.63349,-4.2653 4.10826,-13.8247 5.09417,-20.4674 0.16627,-31.84433 -3.01592,-63.60043 -2.83335,-95.4569 -1.24124,-100.84403 -1.57956,-201.7099 -5.167,-302.50965 -2.70222,-77.4778 -3.8535,-155.10324 -10.88305,-232.34738 -3.03229,-25.80681 -6.21632,-51.89014 -14.00378,-76.76126 C 681.20495,265.36446 658.77816,221.32677 623.07,188.99122 606.63732,176.49799 587.17145,168.7783 568.72573,159.8012 c -23.94491,-10.45694 -49.06129,-18.62903 -74.78484,-23.2927 -26.67697,-2.52047 -53.5364,-0.38498 -80.20651,1.0871 -10.00447,-0.0403 -13.68808,-11.43596 -17.95979,-18.56748 -11.2198,-21.311836 -28.99515,-38.098396 -46.11978,-54.633069 -0.72425,-0.500374 -1.45533,-1.398823 -2.4366,-1.252826 z M 277.01853,240.07478 c 8.5218,0.0472 11.4053,11.77957 6.50877,17.72305 -8.62196,12.17213 -22.06518,19.8041 -34.10843,28.15998 -7.88693,4.43949 -17.28632,11.37929 -26.75326,8.04965 -6.15882,-4.26184 -4.06099,-13.95765 -0.52086,-19.35073 10.76848,-12.63508 25.61182,-21.46091 40.0411,-29.4937 4.6812,-2.19466 9.549,-4.92289 14.83268,-5.08825 z"
         style="opacity:0;fill:#1d4158;fill-opacity:1;stroke:#0000ff;stroke-width:1.01015258" />
      <path
         transform="scale(0.26458333)"
         inkscape:connector-curvature="0"
         id="path5088"
         d="m 347.21821,63.142225 c -4.41029,2.333637 -2.84685,9.085574 -3.93802,13.204982 -1.79023,17.094743 -1.08638,34.616763 -4.5299,51.432943 -5.29563,14.97254 -17.63269,26.33091 -32.03239,32.4892 -30.9161,14.07256 -65.56896,24.76664 -88.24072,51.6487 -23.43286,26.92166 -31.96691,62.59946 -47.90347,93.81665 -17.03065,34.72529 -46.87909,60.40802 -73.032291,88.05482 -17.210677,18.31007 -36.480473,35.03168 -50.930402,55.72619 -4.558796,7.20499 -8.840939,15.35231 -6.822476,24.16277 1.675642,10.87493 7.332075,21.08943 14.307864,29.47199 17.706693,13.88789 37.961325,24.20915 57.371535,35.40071 35.61876,-1.42837 70.44127,-11.83039 101.74734,-28.69936 20.38611,-10.04729 37.59343,-24.99573 54.45934,-39.94169 16.09433,-14.31209 34.87693,-25.68688 55.84285,-31.13137 17.8296,-5.40425 38.34653,-6.61174 55.15357,2.3874 16.25916,11.49957 20.9585,32.61268 24.89166,50.98855 4.03221,17.59791 3.36403,37.39446 -7.72442,52.47088 -22.8383,32.11661 -48.32975,62.25882 -72.40817,93.44953 -20.29692,26.51143 -42.30352,51.83204 -60.64645,79.7742 -12.0777,21.74277 -20.8413,45.38997 -26.71251,69.53548 -9.61291,44.68654 -13.75325,90.30025 -16.3847,135.86483 -2.38675,34.89594 -7.85733,69.90892 -4.9896,104.92957 0.0138,4.5824 2.60984,9.8123 8.00569,9.019 59.90477,1.5156 119.85822,0.6217 179.78206,0.9124 108.00102,-0.1969 216.01389,0.1333 324.00643,-1.0038 6.63349,-4.2653 4.10826,-13.8247 5.09417,-20.4674 0.16627,-31.84433 -3.01592,-63.60043 -2.83335,-95.4569 -1.24124,-100.84403 -1.57956,-201.7099 -5.167,-302.50965 -2.70222,-77.4778 -3.8535,-155.10324 -10.88305,-232.34738 -3.03229,-25.80681 -6.21632,-51.89014 -14.00378,-76.76126 C 681.20495,265.36446 658.77816,221.32677 623.07,188.99122 606.63732,176.49799 587.17145,168.7783 568.72573,159.8012 c -23.94491,-10.45694 -49.06129,-18.62903 -74.78484,-23.2927 -26.67697,-2.52047 -53.5364,-0.38498 -80.20651,1.0871 -10.00447,-0.0403 -13.68808,-11.43596 -17.95979,-18.56748 -11.2198,-21.311836 -28.99515,-38.098396 -46.11978,-54.633069 -0.72425,-0.500374 -1.45533,-1.398823 -2.4366,-1.252826 z M 277.01853,240.07478 c 8.5218,0.0472 11.4053,11.77957 6.50877,17.72305 -8.62196,12.17213 -22.06518,19.8041 -34.10843,28.15998 -7.88693,4.43949 -17.28632,11.37929 -26.75326,8.04965 -6.15882,-4.26184 -4.06099,-13.95765 -0.52086,-19.35073 10.76848,-12.63508 25.61182,-21.46091 40.0411,-29.4937 4.6812,-2.19466 9.549,-4.92289 14.83268,-5.08825 z"
         style="opacity:0;fill:#1d4158;fill-opacity:1;stroke:#0000ff;stroke-width:1.01015258" />
      <path
         transform="scale(0.26458333)"
         inkscape:connector-curvature="0"
         id="path5090"
         d="m 347.21821,63.142225 c -4.41029,2.333637 -2.84685,9.085574 -3.93802,13.204982 -1.79023,17.094743 -1.08638,34.616763 -4.5299,51.432943 -5.29563,14.97254 -17.63269,26.33091 -32.03239,32.4892 -30.9161,14.07256 -65.56896,24.76664 -88.24072,51.6487 -23.43286,26.92166 -31.96691,62.59946 -47.90347,93.81665 -17.03065,34.72529 -46.87909,60.40802 -73.032291,88.05482 -17.210677,18.31007 -36.480473,35.03168 -50.930402,55.72619 -4.558796,7.20499 -8.840939,15.35231 -6.822476,24.16277 1.675642,10.87493 7.332075,21.08943 14.307864,29.47199 17.706693,13.88789 37.961325,24.20915 57.371535,35.40071 35.61876,-1.42837 70.44127,-11.83039 101.74734,-28.69936 20.38611,-10.04729 37.59343,-24.99573 54.45934,-39.94169 16.09433,-14.31209 34.87693,-25.68688 55.84285,-31.13137 17.8296,-5.40425 38.34653,-6.61174 55.15357,2.3874 16.25916,11.49957 20.9585,32.61268 24.89166,50.98855 4.03221,17.59791 3.36403,37.39446 -7.72442,52.47088 -22.8383,32.11661 -48.32975,62.25882 -72.40817,93.44953 -20.29692,26.51143 -42.30352,51.83204 -60.64645,79.7742 -12.0777,21.74277 -20.8413,45.38997 -26.71251,69.53548 -9.61291,44.68654 -13.75325,90.30025 -16.3847,135.86483 -2.38675,34.89594 -7.85733,69.90892 -4.9896,104.92957 0.0138,4.5824 2.60984,9.8123 8.00569,9.019 59.90477,1.5156 119.85822,0.6217 179.78206,0.9124 108.00102,-0.1969 216.01389,0.1333 324.00643,-1.0038 6.63349,-4.2653 4.10826,-13.8247 5.09417,-20.4674 0.16627,-31.84433 -3.01592,-63.60043 -2.83335,-95.4569 -1.24124,-100.84403 -1.57956,-201.7099 -5.167,-302.50965 -2.70222,-77.4778 -3.8535,-155.10324 -10.88305,-232.34738 -3.03229,-25.80681 -6.21632,-51.89014 -14.00378,-76.76126 C 681.20495,265.36446 658.77816,221.32677 623.07,188.99122 606.63732,176.49799 587.17145,168.7783 568.72573,159.8012 c -23.94491,-10.45694 -49.06129,-18.62903 -74.78484,-23.2927 -26.67697,-2.52047 -53.5364,-0.38498 -80.20651,1.0871 -10.00447,-0.0403 -13.68808,-11.43596 -17.95979,-18.56748 -11.2198,-21.311836 -28.99515,-38.098396 -46.11978,-54.633069 -0.72425,-0.500374 -1.45533,-1.398823 -2.4366,-1.252826 z M 277.01853,240.07478 c 8.5218,0.0472 11.4053,11.77957 6.50877,17.72305 -8.62196,12.17213 -22.06518,19.8041 -34.10843,28.15998 -7.88693,4.43949 -17.28632,11.37929 -26.75326,8.04965 -6.15882,-4.26184 -4.06099,-13.95765 -0.52086,-19.35073 10.76848,-12.63508 25.61182,-21.46091 40.0411,-29.4937 4.6812,-2.19466 9.549,-4.92289 14.83268,-5.08825 z"
         style="opacity:0;fill:#008080;fill-opacity:1;stroke:#008080;stroke-width:1.01015258" />
      <path
         transform="scale(0.26458333)"
         inkscape:connector-curvature="0"
         id="path5094"
         d="m 347.80438,67.680079 c -4.8456,33.826211 -2.1564,81.252811 -42.45536,93.950891 -50.72206,20.11994 -97.94772,54.94349 -116.55133,108.40402 -25.46848,79.89595 -106.381709,122.90605 -144.174112,194.50893 -2.597077,39.17985 43.471071,63.43812 76.875002,68.92857 77.17537,3.53366 129.23047,-63.78095 193.44866,-93.82812 29.12392,-8.63741 76.52734,-8.88272 83.82813,28.89508 11.40769,30.13205 14.72142,66.96211 -12.17238,90.51205 -59.00786,88.01493 -150.87923,165.76996 -156.59392,279.06579 -6.32325,65.45131 -15.91609,132.02885 -13.80067,197.37531 170.62761,-1.5342 342.15306,-0.9337 512.22097,-3.7835 C 724.6464,807.36443 725.75263,582.36492 706.56554,358.71802 690.48823,276.52261 647.4012,187.63226 562.32447,159.5774 512.40416,136.94212 457.16962,137.27663 403.80885,136.69794 388.20652,111.77993 372.22418,83.536945 347.80438,67.680079 Z M 277.29099,238.68454 c 23.09903,9.50941 -1.32109,32.90629 -13.52678,40.13393 -11.49275,7.3762 -34.49582,26.69072 -46.21652,12.1317 -1.21565,-26.4023 38.31453,-46.35085 59.7433,-52.26563 z"
         style="opacity:0;fill:#008080;fill-opacity:1;stroke:#008080;stroke-width:5.71428585" />
      <path
         transform="scale(0.26458333)"
         inkscape:connector-curvature="0"
         id="path5096"
         d="m 347.80438,67.680079 c -4.8456,33.826211 -2.1564,81.252811 -42.45536,93.950891 -50.72206,20.11994 -97.94772,54.94349 -116.55133,108.40402 -25.46848,79.89595 -106.381709,122.90605 -144.174112,194.50893 -2.597077,39.17985 43.471071,63.43812 76.875002,68.92857 77.17537,3.53366 129.23047,-63.78095 193.44866,-93.82812 29.12392,-8.63741 76.52734,-8.88272 83.82813,28.89508 11.40769,30.13205 14.72142,66.96211 -12.17238,90.51205 -59.00786,88.01493 -150.87923,165.76996 -156.59392,279.06579 -6.32325,65.45131 -15.91609,132.02885 -13.80067,197.37531 170.62761,-1.5342 342.15306,-0.9337 512.22097,-3.7835 C 724.6464,807.36443 725.75263,582.36492 706.56554,358.71802 690.48823,276.52261 647.4012,187.63226 562.32447,159.5774 512.40416,136.94212 457.16962,137.27663 403.80885,136.69794 388.20652,111.77993 372.22418,83.536945 347.80438,67.680079 Z M 277.29099,238.68454 c 23.09903,9.50941 -1.32109,32.90629 -13.52678,40.13393 -11.49275,7.3762 -34.49582,26.69072 -46.21652,12.1317 -1.21565,-26.4023 38.31453,-46.35085 59.7433,-52.26563 z"
         style="opacity:0;fill:url(#linearGradient5104);fill-opacity:1;stroke:#008080;stroke-width:5.71428585" />
      <path
         transform="scale(0.26458333)"
         inkscape:connector-curvature="0"
         id="path5106"
         d="m 347.80438,67.680079 c -4.8456,33.826211 -2.1564,81.252811 -42.45536,93.950891 -50.72206,20.11994 -97.94772,54.94349 -116.55133,108.40402 -25.46848,79.89595 -106.381709,122.90605 -144.174112,194.50893 -2.597077,39.17985 43.471071,63.43812 76.875002,68.92857 77.17537,3.53366 129.23047,-63.78095 193.44866,-93.82812 29.12392,-8.63741 76.52734,-8.88272 83.82813,28.89508 11.40769,30.13205 14.72142,66.96211 -12.17238,90.51205 -59.00786,88.01493 -150.87923,165.76996 -156.59392,279.06579 -6.32325,65.45131 -15.91609,132.02885 -13.80067,197.37531 170.62761,-1.5342 342.15306,-0.9337 512.22097,-3.7835 C 724.6464,807.36443 725.75263,582.36492 706.56554,358.71802 690.48823,276.52261 647.4012,187.63226 562.32447,159.5774 512.40416,136.94212 457.16962,137.27663 403.80885,136.69794 388.20652,111.77993 372.22418,83.536945 347.80438,67.680079 Z M 277.29099,238.68454 c 23.09903,9.50941 -1.32109,32.90629 -13.52678,40.13393 -11.49275,7.3762 -34.49582,26.69072 -46.21652,12.1317 -1.21565,-26.4023 38.31453,-46.35085 59.7433,-52.26563 z"
         style="opacity:0;fill:#008080;fill-opacity:1;stroke:#008080;stroke-width:5.71428585" />
      <path
         transform="scale(0.26458333)"
         inkscape:connector-curvature="0"
         id="path5110"
         d="m 347.80438,67.680079 c -4.8456,33.826211 -2.1564,81.252811 -42.45536,93.950891 -50.72206,20.11994 -97.94772,54.94349 -116.55133,108.40402 -25.46848,79.89595 -106.381709,122.90605 -144.174112,194.50893 -2.597077,39.17985 43.471071,63.43812 76.875002,68.92857 78.21527,4.05102 129.32563,-65.85028 195.32366,-93.91741 29.23406,-9.14811 76.10651,-8.30626 82.29911,30.49107 7.58479,23.57816 19.3802,54.39759 -4.76563,72.60044 -9.45837,21.8393 -33.45887,33.8552 -39.18527,56.29465 -15.66832,6.61487 -17.7075,31.12683 -31.57748,42.20599 -47.74685,57.94674 -89.68324,124.46446 -94.41835,201.56 -7.78276,63.87765 -12.00348,129.084 -14.52872,192.78537 171.14879,-1.5334 343.19465,-0.9338 513.78347,-3.7835 C 724.6464,807.36443 725.75263,582.36492 706.56554,358.71802 690.48823,276.52261 647.4012,187.63226 562.32447,159.5774 512.40416,136.94212 457.16962,137.27663 403.80885,136.69794 388.20652,111.77993 372.22418,83.536945 347.80438,67.680079 Z M 277.29099,238.68454 c 23.09903,9.50941 -1.32109,32.90629 -13.52678,40.13393 -11.49275,7.3762 -34.49582,26.69072 -46.21652,12.1317 -1.21565,-26.4023 38.31453,-46.35085 59.7433,-52.26563 z"
         style="opacity:0;fill:#008080;fill-opacity:1;stroke:#008080;stroke-width:5.71428585" />
      <path
         transform="scale(0.26458333)"
         inkscape:connector-curvature="0"
         id="path865"
         d="m 346.77374,64.084229 c -4.60603,8.237917 -2.40182,20.343993 -4.16411,29.833909 -0.44614,21.281192 -2.50867,46.776542 -22.77462,59.118702 -31.19244,19.65292 -70.25241,26.47049 -96.17362,54.46538 -29.91789,29.674 -37.36539,73.31412 -58.47836,108.60324 -19.15455,31.53454 -47.29375,56.75705 -72.212471,83.80918 -17.806749,20.10165 -42.367205,36.56811 -51.882402,62.61952 -3.793882,21.68818 11.861133,42.41174 30.403223,52.07021 14.003537,7.69504 27.497096,18.6677 42.26563,23.57361 56.79781,-3.9821 111.05073,-28.84984 152.54784,-67.59129 28.08173,-25.60076 68.30118,-42.96019 106.06204,-32.1857 23.87693,8.83364 28.35257,37.48076 32.52218,59.25965 3.6336,19.32458 0.13748,40.3802 -14.11108,54.8191 -41.60716,55.76169 -87.39701,108.45434 -127.09976,165.59552 -23.00471,39.55591 -32.14536,84.95855 -36.78806,129.96729 -5.15957,43.54556 -7.66003,87.30521 -11.29655,130.96341 0.11742,18.92323 -3.94082,39.07914 1.71091,57.18834 170.32031,1.4624 340.68356,4.2239 510.98724,0 6.01912,-23.0105 1.05969,-48.24511 1.49012,-72.07102 -5.65829,-189.32586 -3.18166,-379.00412 -16.60295,-568.03033 -4.7059,-42.54558 -9.94501,-86.49896 -31.85926,-124.20141 -16.75785,-30.27664 -33.70936,-62.46687 -61.18131,-84.40692 -50.18916,-29.90973 -107.2423,-55.42187 -167.02785,-51.22324 -15.21771,-0.34192 -31.56816,3.57863 -46.18141,-0.47605 -12.58805,-15.53955 -21.32028,-34.07077 -35.65808,-48.406699 -7.7531,-7.720698 -14.47738,-18.532492 -24.49729,-23.294402 z M 277.59801,239.72056 c 13.71593,1.86205 8.05158,20.36351 -0.0513,25.79834 -13.47923,10.41134 -27.05414,22.78061 -43.13272,28.75779 -7.23464,3.40007 -17.76196,-0.21854 -16.23347,-9.52938 2.37405,-15.9653 19.63105,-23.87843 31.12138,-32.81022 8.7201,-5.09037 17.90813,-11.46952 28.29611,-12.21653 z"
         style="opacity:0;fill:#00ffff;fill-opacity:1;stroke:#00ffff;stroke-width:2.02030516" />
      <path
         transform="scale(0.26458333)"
         inkscape:connector-curvature="0"
         id="path867"
         d="m 346.77374,64.084229 c -4.60603,8.237917 -2.40182,20.343993 -4.16411,29.833909 -0.44614,21.281192 -2.50867,46.776542 -22.77462,59.118702 -31.19244,19.65292 -70.25241,26.47049 -96.17362,54.46538 -29.91789,29.674 -37.36539,73.31412 -58.47836,108.60324 -19.15455,31.53454 -47.29375,56.75705 -72.212471,83.80918 -17.806749,20.10165 -42.367205,36.56811 -51.882402,62.61952 -3.793882,21.68818 11.861133,42.41174 30.403223,52.07021 14.003537,7.69504 27.497096,18.6677 42.26563,23.57361 56.79781,-3.9821 111.05073,-28.84984 152.54784,-67.59129 28.08173,-25.60076 68.30118,-42.96019 106.06204,-32.1857 23.87693,8.83364 28.35257,37.48076 32.52218,59.25965 3.6336,19.32458 0.13748,40.3802 -14.11108,54.8191 -41.60716,55.76169 -87.39701,108.45434 -127.09976,165.59552 -23.00471,39.55591 -32.14536,84.95855 -36.78806,129.96729 -5.15957,43.54556 -7.66003,87.30521 -11.29655,130.96341 0.11742,18.92323 -3.94082,39.07914 1.71091,57.18834 170.32031,1.4624 340.68356,4.2239 510.98724,0 6.01912,-23.0105 1.05969,-48.24511 1.49012,-72.07102 -5.65829,-189.32586 -3.18166,-379.00412 -16.60295,-568.03033 -4.7059,-42.54558 -9.94501,-86.49896 -31.85926,-124.20141 -16.75785,-30.27664 -33.70936,-62.46687 -61.18131,-84.40692 -50.18916,-29.90973 -107.2423,-55.42187 -167.02785,-51.22324 -15.21771,-0.34192 -31.56816,3.57863 -46.18141,-0.47605 -12.58805,-15.53955 -21.32028,-34.07077 -35.65808,-48.406699 -7.7531,-7.720698 -14.47738,-18.532492 -24.49729,-23.294402 z M 277.59801,239.72056 c 13.71593,1.86205 8.05158,20.36351 -0.0513,25.79834 -13.47923,10.41134 -27.05414,22.78061 -43.13272,28.75779 -7.23464,3.40007 -17.76196,-0.21854 -16.23347,-9.52938 2.37405,-15.9653 19.63105,-23.87843 31.12138,-32.81022 8.7201,-5.09037 17.90813,-11.46952 28.29611,-12.21653 z"
         style="opacity:0;fill:none;fill-opacity:1;stroke:#00ffff;stroke-width:2.02030516" />
      <path
         transform="scale(0.26458333)"
         inkscape:connector-curvature="0"
         id="path877"
         d="m 346.77374,64.084229 c -4.60603,8.237917 -2.40182,20.343993 -4.16411,29.833909 -0.44614,21.281192 -2.50867,46.776542 -22.77462,59.118702 -31.19244,19.65292 -70.25241,26.47049 -96.17362,54.46538 -29.91789,29.674 -37.36539,73.31412 -58.47836,108.60324 -19.15455,31.53454 -47.29375,56.75705 -72.212471,83.80918 -17.806749,20.10165 -42.367205,36.56811 -51.882402,62.61952 -3.793882,21.68818 11.861133,42.41174 30.403223,52.07021 14.003537,7.69504 27.497096,18.6677 42.26563,23.57361 56.79781,-3.9821 111.05073,-28.84984 152.54784,-67.59129 28.08173,-25.60076 68.30118,-42.96019 106.06204,-32.1857 23.87693,8.83364 28.35257,37.48076 32.52218,59.25965 3.6336,19.32458 0.13748,40.3802 -14.11108,54.8191 -41.60716,55.76169 -87.39701,108.45434 -127.09976,165.59552 -23.00471,39.55591 -32.14536,84.95855 -36.78806,129.96729 -5.15957,43.54556 -7.66003,87.30521 -11.29655,130.96341 0.11742,18.92323 -3.94082,39.07914 1.71091,57.18834 170.32031,1.4624 340.68356,4.2239 510.98724,0 6.01912,-23.0105 1.05969,-48.24511 1.49012,-72.07102 -5.65829,-189.32586 -3.18166,-379.00412 -16.60295,-568.03033 -4.7059,-42.54558 -9.94501,-86.49896 -31.85926,-124.20141 -16.75785,-30.27664 -33.70936,-62.46687 -61.18131,-84.40692 -50.18916,-29.90973 -107.2423,-55.42187 -167.02785,-51.22324 -15.21771,-0.34192 -31.56816,3.57863 -46.18141,-0.47605 -12.58805,-15.53955 -21.32028,-34.07077 -35.65808,-48.406699 -7.7531,-7.720698 -14.47738,-18.532492 -24.49729,-23.294402 z M 277.59801,239.72056 c 13.71593,1.86205 8.05158,20.36351 -0.0513,25.79834 -13.47923,10.41134 -27.05414,22.78061 -43.13272,28.75779 -7.23464,3.40007 -17.76196,-0.21854 -16.23347,-9.52938 2.37405,-15.9653 19.63105,-23.87843 31.12138,-32.81022 8.7201,-5.09037 17.90813,-11.46952 28.29611,-12.21653 z"
         style="opacity:0;fill:#c3ffff;fill-opacity:1;stroke:#00ffff;stroke-width:2.02030516" />
      <path
         transform="scale(0.26458333)"
         inkscape:connector-curvature="0"
         id="path879"
         d="m 346.77374,64.084229 c -4.60603,8.237917 -2.40182,20.343993 -4.16411,29.833909 -0.44614,21.281192 -2.50867,46.776542 -22.77462,59.118702 -31.19244,19.65292 -70.25241,26.47049 -96.17362,54.46538 -29.91789,29.674 -37.36539,73.31412 -58.47836,108.60324 -19.15455,31.53454 -47.29375,56.75705 -72.212471,83.80918 -17.806749,20.10165 -42.367205,36.56811 -51.882402,62.61952 -3.793882,21.68818 11.861133,42.41174 30.403223,52.07021 14.003537,7.69504 27.497096,18.6677 42.26563,23.57361 56.79781,-3.9821 111.05073,-28.84984 152.54784,-67.59129 28.08173,-25.60076 68.30118,-42.96019 106.06204,-32.1857 23.87693,8.83364 28.35257,37.48076 32.52218,59.25965 3.6336,19.32458 0.13748,40.3802 -14.11108,54.8191 -41.60716,55.76169 -87.39701,108.45434 -127.09976,165.59552 -23.00471,39.55591 -32.14536,84.95855 -36.78806,129.96729 -5.15957,43.54556 -7.66003,87.30521 -11.29655,130.96341 0.11742,18.92323 -3.94082,39.07914 1.71091,57.18834 170.32031,1.4624 340.68356,4.2239 510.98724,0 6.01912,-23.0105 1.05969,-48.24511 1.49012,-72.07102 -5.65829,-189.32586 -3.18166,-379.00412 -16.60295,-568.03033 -4.7059,-42.54558 -9.94501,-86.49896 -31.85926,-124.20141 -16.75785,-30.27664 -33.70936,-62.46687 -61.18131,-84.40692 -50.18916,-29.90973 -107.2423,-55.42187 -167.02785,-51.22324 -15.21771,-0.34192 -31.56816,3.57863 -46.18141,-0.47605 -12.58805,-15.53955 -21.32028,-34.07077 -35.65808,-48.406699 -7.7531,-7.720698 -14.47738,-18.532492 -24.49729,-23.294402 z M 277.59801,239.72056 c 13.71593,1.86205 8.05158,20.36351 -0.0513,25.79834 -13.47923,10.41134 -27.05414,22.78061 -43.13272,28.75779 -7.23464,3.40007 -17.76196,-0.21854 -16.23347,-9.52938 2.37405,-15.9653 19.63105,-23.87843 31.12138,-32.81022 8.7201,-5.09037 17.90813,-11.46952 28.29611,-12.21653 z"
         style="opacity:0;fill:#c3ffff;fill-opacity:1;stroke:#483737;stroke-width:2.02030516" />
      <path
         transform="scale(0.26458333)"
         inkscape:connector-curvature="0"
         id="path881"
         d="m 346.77374,64.084229 c -4.60603,8.237917 -2.40182,20.343993 -4.16411,29.833909 -0.44614,21.281192 -2.50867,46.776542 -22.77462,59.118702 -31.19244,19.65292 -70.25241,26.47049 -96.17362,54.46538 -29.91789,29.674 -37.36539,73.31412 -58.47836,108.60324 -19.15455,31.53454 -47.29375,56.75705 -72.212471,83.80918 -17.806749,20.10165 -42.367205,36.56811 -51.882402,62.61952 -3.793882,21.68818 11.861133,42.41174 30.403223,52.07021 14.003537,7.69504 27.497096,18.6677 42.26563,23.57361 56.79781,-3.9821 111.05073,-28.84984 152.54784,-67.59129 28.08173,-25.60076 68.30118,-42.96019 106.06204,-32.1857 23.87693,8.83364 28.35257,37.48076 32.52218,59.25965 3.6336,19.32458 0.13748,40.3802 -14.11108,54.8191 -41.60716,55.76169 -87.39701,108.45434 -127.09976,165.59552 -23.00471,39.55591 -32.14536,84.95855 -36.78806,129.96729 -5.15957,43.54556 -7.66003,87.30521 -11.29655,130.96341 0.11742,18.92323 -3.94082,39.07914 1.71091,57.18834 170.32031,1.4624 340.68356,4.2239 510.98724,0 6.01912,-23.0105 1.05969,-48.24511 1.49012,-72.07102 -5.65829,-189.32586 -3.18166,-379.00412 -16.60295,-568.03033 -4.7059,-42.54558 -9.94501,-86.49896 -31.85926,-124.20141 -16.75785,-30.27664 -33.70936,-62.46687 -61.18131,-84.40692 -50.18916,-29.90973 -107.2423,-55.42187 -167.02785,-51.22324 -15.21771,-0.34192 -31.56816,3.57863 -46.18141,-0.47605 -12.58805,-15.53955 -21.32028,-34.07077 -35.65808,-48.406699 -7.7531,-7.720698 -14.47738,-18.532492 -24.49729,-23.294402 z M 277.59801,239.72056 c 13.71593,1.86205 8.05158,20.36351 -0.0513,25.79834 -13.47923,10.41134 -27.05414,22.78061 -43.13272,28.75779 -7.23464,3.40007 -17.76196,-0.21854 -16.23347,-9.52938 2.37405,-15.9653 19.63105,-23.87843 31.12138,-32.81022 8.7201,-5.09037 17.90813,-11.46952 28.29611,-12.21653 z"
         style="opacity:0;fill:#c3ffff;fill-opacity:1;fill-rule:nonzero;stroke:#483737;stroke-width:2.02030516" />
      <flowRoot
         transform="scale(0.26458333)"
         style="font-style:normal;font-weight:normal;font-size:40px;line-height:1.25;font-family:sans-serif;letter-spacing:0px;word-spacing:0px;fill:#000000;fill-opacity:1;stroke:none"
         id="flowRoot883"
         xml:space="preserve"><flowRegion
           id="flowRegion885"><rect
             y="621.48401"
             x="511.13718"
             height="335.37064"
             width="62.629459"
             id="rect887" /></flowRegion><flowPara
           id="flowPara889">rtrtrt</flowPara></flowRoot>      <text
         id="text893"
         y="195.97211"
         x="143.25647"
         style="font-style:normal;font-weight:normal;font-size:10.58333302px;line-height:1.25;font-family:sans-serif;letter-spacing:0px;word-spacing:0px;fill:#000000;fill-opacity:1;stroke:none;stroke-width:0.26458332"
         xml:space="preserve"><tspan
           style="stroke-width:0.26458332"
           y="205.33588"
           x="143.25647"
           id="tspan891"
           sodipodi:role="line" /></text>
      <path
         transform="scale(0.26458333)"
         inkscape:connector-curvature="0"
         id="path899"
         d="m 343.26187,43.790422 c -21.02419,4.142938 -19.48924,28.28237 -20.93303,44.71898 -1.73559,17.413358 1.34639,41.261448 -18.06044,50.030168 -31.31568,16.60526 -67.35408,25.89294 -92.79197,52.08994 -42.7516,39.1191 -45.25848,103.93125 -86.21417,144.47381 -28.850394,34.61073 -63.596213,63.81008 -92.160622,98.59416 -15.927314,18.46684 -17.347938,45.7453 -4.766657,66.37805 14.590552,28.45523 47.44219,39.12321 72.482389,55.99639 18.61238,6.18704 38.58021,-1.18014 57.36562,-4.06823 47.5693,-10.94997 90.79386,-36.98548 126.1428,-69.66896 22.63232,-19.05035 54.68905,-33.38179 84.08336,-23.1388 12.89716,12.18791 14.32881,32.09454 16.88848,48.79905 4.05065,21.84025 -15.99385,35.97412 -26.42131,52.28804 -37.42369,49.32412 -78.1133,96.31666 -113.02177,147.46973 -24.00838,41.36205 -34.31758,88.67764 -39.16451,135.79832 -5.42989,44.33303 -7.70487,87.97702 -11.56175,132.36797 0.19084,24.24666 -5.94396,50.42236 5.57186,72.95736 15.29449,14.1065 38.02717,5.7539 56.80734,8.3073 157.67875,1.0929 315.59483,4.1954 473.13252,-0.9395 22.81886,-3.5008 21.06891,-31.1875 20.93656,-48.863 -6.77428,-201.90548 -3.83027,-404.42117 -17.27124,-606.21775 -4.77598,-47.21263 -10.31818,-96.05924 -34.32066,-138.00995 -18.46161,-33.60598 -37.5141,-69.22091 -68.54521,-92.88882 -54.26172,-32.66333 -116.36675,-59.42402 -181.06617,-54.51879 -10.79894,-0.0311 -22.54652,2.14647 -32.84547,0.48352 -15.46496,-25.746623 -34.4073,-50.229786 -57.94567,-69.01394 -4.83002,-3.137386 -10.65187,-4.173341 -16.32028,-3.425048 z"
         style="opacity:0;fill:#c3ffff;fill-opacity:1;fill-rule:nonzero;stroke:#483737;stroke-width:2.02030516" />
      <path
         transform="scale(0.26458333)"
         inkscape:connector-curvature="0"
         id="path901"
         d="m 343.26187,43.790422 c -21.02419,4.142938 -19.48924,28.28237 -20.93303,44.71898 -1.73559,17.413358 1.34639,41.261448 -18.06044,50.030168 -31.31568,16.60526 -67.35408,25.89294 -92.79197,52.08994 -42.7516,39.1191 -45.25848,103.93125 -86.21417,144.47381 -28.850394,34.61073 -63.596213,63.81008 -92.160622,98.59416 -15.927314,18.46684 -17.347938,45.7453 -4.766657,66.37805 14.590552,28.45523 47.44219,39.12321 72.482389,55.99639 18.61238,6.18704 38.58021,-1.18014 57.36562,-4.06823 47.5693,-10.94997 90.79386,-36.98548 126.1428,-69.66896 22.63232,-19.05035 54.68905,-33.38179 84.08336,-23.1388 12.89716,12.18791 14.32881,32.09454 16.88848,48.79905 4.05065,21.84025 -15.99385,35.97412 -26.42131,52.28804 -37.42369,49.32412 -78.1133,96.31666 -113.02177,147.46973 -24.00838,41.36205 -34.31758,88.67764 -39.16451,135.79832 -5.42989,44.33303 -7.70487,87.97702 -11.56175,132.36797 0.19084,24.24666 -5.94396,50.42236 5.57186,72.95736 15.29449,14.1065 38.02717,5.7539 56.80734,8.3073 157.67875,1.0929 315.59483,4.1954 473.13252,-0.9395 22.81886,-3.5008 21.06891,-31.1875 20.93656,-48.863 -6.77428,-201.90548 -3.83027,-404.42117 -17.27124,-606.21775 -4.77598,-47.21263 -10.31818,-96.05924 -34.32066,-138.00995 -18.46161,-33.60598 -37.5141,-69.22091 -68.54521,-92.88882 -54.26172,-32.66333 -116.36675,-59.42402 -181.06617,-54.51879 -10.79894,-0.0311 -22.54652,2.14647 -32.84547,0.48352 -15.46496,-25.746623 -34.4073,-50.229786 -57.94567,-69.01394 -4.83002,-3.137386 -10.65187,-4.173341 -16.32028,-3.425048 z"
         style="opacity:0;fill:#0eff65;fill-opacity:1;fill-rule:nonzero;stroke:#483737;stroke-width:2.02030516" />
      <path
         transform="scale(0.26458333)"
         inkscape:connector-curvature="0"
         id="path903"
         d="m 349.01895,71.230269 c -4.48187,27.024005 2.35412,60.391891 -20.64104,80.701721 -29.99474,23.79332 -71.63113,27.99868 -98.92409,56.11299 -31.00868,28.50113 -38.25826,72.23812 -58.93592,107.45675 -17.85898,31.81481 -45.87962,56.36593 -70.15431,83.16002 -18.399865,20.98758 -43.553393,37.77352 -54.773152,64.08549 -3.94699,20.14319 11.148745,39.27405 28.288218,48.15193 13.407071,7.54303 26.511914,17.66652 40.564894,22.76036 55.53227,-4.02461 108.47239,-28.56352 149.02754,-66.44335 29.56945,-26.88416 72.76371,-45.28258 112.47081,-32.15342 25.36151,11.34664 29.95494,42.23595 33.89928,66.67401 3.10624,19.51956 -2.2691,39.71834 -16.09141,54.12601 -41.36297,55.31189 -86.88895,107.89845 -126.25979,164.42219 -23.1032,39.63711 -31.80411,85.2419 -36.47455,130.31961 -4.90855,42.00166 -7.31551,84.5072 -10.91805,126.60868 -0.26834,18.23326 -2.95113,36.68804 0.2455,54.60504 168.2934,1.4426 336.6291,4.1638 504.90659,0.032 3.62067,-38.80912 -1.52676,-78.31485 -1.16179,-117.49584 -4.13577,-172.6314 -3.02171,-345.67776 -15.29264,-517.86246 -4.66066,-41.90093 -9.75274,-85.29949 -31.39758,-122.60333 -16.40801,-29.64601 -32.97896,-61.14099 -59.73711,-82.76542 -43.03884,-25.4982 -90.12153,-47.6608 -140.66374,-50.5313 -23.52728,-1.8777 -47.91247,4.09844 -71.36176,-0.35908 C 392.18844,127.77354 386.24054,109.27933 373.11268,96.36176 365.45526,88.092293 358.01421,77.163904 349.01895,71.230269 Z M 277.89396,235.32876 c 15.90039,0.88692 15.0155,22.50222 5.35854,30.73073 -14.30665,12.48245 -29.70836,25.15056 -47.26804,32.53008 -8.90842,3.32149 -21.70042,0.31277 -22.12865,-10.94595 -0.76654,-19.30286 19.81744,-29.40469 33.10617,-39.43541 9.53279,-5.59779 19.54154,-12.44386 30.93198,-12.87945 z"
         style="opacity:0;fill:#0eff65;fill-opacity:1;fill-rule:nonzero;stroke:#483737;stroke-width:2.02030516" />
      <path
         transform="scale(0.26458333)"
         inkscape:connector-curvature="0"
         id="path905"
         d="m 349.01895,71.230269 c -4.48187,27.024005 2.35412,60.391891 -20.64104,80.701721 -29.99474,23.79332 -71.63113,27.99868 -98.92409,56.11299 -31.00868,28.50113 -38.25826,72.23812 -58.93592,107.45675 -17.85898,31.81481 -45.87962,56.36593 -70.15431,83.16002 -18.399865,20.98758 -43.553393,37.77352 -54.773152,64.08549 -3.94699,20.14319 11.148745,39.27405 28.288218,48.15193 13.407071,7.54303 26.511914,17.66652 40.564894,22.76036 55.53227,-4.02461 108.47239,-28.56352 149.02754,-66.44335 29.56945,-26.88416 72.76371,-45.28258 112.47081,-32.15342 25.36151,11.34664 29.95494,42.23595 33.89928,66.67401 3.10624,19.51956 -2.2691,39.71834 -16.09141,54.12601 -41.36297,55.31189 -86.88895,107.89845 -126.25979,164.42219 -23.1032,39.63711 -31.80411,85.2419 -36.47455,130.31961 -4.90855,42.00166 -7.31551,84.5072 -10.91805,126.60868 -0.26834,18.23326 -2.95113,36.68804 0.2455,54.60504 168.2934,1.4426 336.6291,4.1638 504.90659,0.032 3.62067,-38.80912 -1.52676,-78.31485 -1.16179,-117.49584 -4.13577,-172.6314 -3.02171,-345.67776 -15.29264,-517.86246 -4.66066,-41.90093 -9.75274,-85.29949 -31.39758,-122.60333 -16.40801,-29.64601 -32.97896,-61.14099 -59.73711,-82.76542 -43.03884,-25.4982 -90.12153,-47.6608 -140.66374,-50.5313 -23.52728,-1.8777 -47.91247,4.09844 -71.36176,-0.35908 C 392.18844,127.77354 386.24054,109.27933 373.11268,96.36176 365.45526,88.092293 358.01421,77.163904 349.01895,71.230269 Z M 277.89396,235.32876 c 15.90039,0.88692 15.0155,22.50222 5.35854,30.73073 -14.30665,12.48245 -29.70836,25.15056 -47.26804,32.53008 -8.90842,3.32149 -21.70042,0.31277 -22.12865,-10.94595 -0.76654,-19.30286 19.81744,-29.40469 33.10617,-39.43541 9.53279,-5.59779 19.54154,-12.44386 30.93198,-12.87945 z"
         style="opacity:0;fill:#0eff65;fill-opacity:1;fill-rule:nonzero;stroke:#483737;stroke-width:2.02030516" />
      <path
         transform="scale(0.26458333)"
         inkscape:connector-curvature="0"
         id="path907"
         d="m 349.01895,71.230269 c -4.48187,27.024005 2.35412,60.391891 -20.64104,80.701721 -29.99474,23.79332 -71.63113,27.99868 -98.92409,56.11299 -31.00868,28.50113 -38.25826,72.23812 -58.93592,107.45675 -17.85898,31.81481 -45.87962,56.36593 -70.15431,83.16002 -18.399865,20.98758 -43.553393,37.77352 -54.773152,64.08549 -3.94699,20.14319 11.148745,39.27405 28.288218,48.15193 13.407071,7.54303 26.511914,17.66652 40.564894,22.76036 55.53227,-4.02461 108.47239,-28.56352 149.02754,-66.44335 29.56945,-26.88416 72.76371,-45.28258 112.47081,-32.15342 25.36151,11.34664 29.95494,42.23595 33.89928,66.67401 3.10624,19.51956 -2.2691,39.71834 -16.09141,54.12601 -41.36297,55.31189 -86.88895,107.89845 -126.25979,164.42219 -23.1032,39.63711 -31.80411,85.2419 -36.47455,130.31961 -4.90855,42.00166 -7.31551,84.5072 -10.91805,126.60868 -0.26834,18.23326 -2.95113,36.68804 0.2455,54.60504 168.2934,1.4426 336.6291,4.1638 504.90659,0.032 3.62067,-38.80912 -1.52676,-78.31485 -1.16179,-117.49584 -4.13577,-172.6314 -3.02171,-345.67776 -15.29264,-517.86246 -4.66066,-41.90093 -9.75274,-85.29949 -31.39758,-122.60333 -16.40801,-29.64601 -32.97896,-61.14099 -59.73711,-82.76542 -43.03884,-25.4982 -90.12153,-47.6608 -140.66374,-50.5313 -23.52728,-1.8777 -47.91247,4.09844 -71.36176,-0.35908 C 392.18844,127.77354 386.24054,109.27933 373.11268,96.36176 365.45526,88.092293 358.01421,77.163904 349.01895,71.230269 Z M 277.89396,235.32876 c 15.90039,0.88692 15.0155,22.50222 5.35854,30.73073 -14.30665,12.48245 -29.70836,25.15056 -47.26804,32.53008 -8.90842,3.32149 -21.70042,0.31277 -22.12865,-10.94595 -0.76654,-19.30286 19.81744,-29.40469 33.10617,-39.43541 9.53279,-5.59779 19.54154,-12.44386 30.93198,-12.87945 z"
         style="opacity:0;fill:#0eff65;fill-opacity:1;fill-rule:nonzero;stroke:#483737;stroke-width:2.02030516" />
      <path
         transform="scale(0.26458333)"
         inkscape:connector-curvature="0"
         id="path909"
         d="m 349.01895,71.230269 c -4.48187,27.024005 2.35412,60.391891 -20.64104,80.701721 -29.99474,23.79332 -71.63113,27.99868 -98.92409,56.11299 -31.00868,28.50113 -38.25826,72.23812 -58.93592,107.45675 -17.85898,31.81481 -45.87962,56.36593 -70.15431,83.16002 -18.399865,20.98758 -43.553393,37.77352 -54.773152,64.08549 -3.94699,20.14319 11.148745,39.27405 28.288218,48.15193 13.407071,7.54303 26.511914,17.66652 40.564894,22.76036 55.53227,-4.02461 108.47239,-28.56352 149.02754,-66.44335 29.56945,-26.88416 72.76371,-45.28258 112.47081,-32.15342 25.36151,11.34664 29.95494,42.23595 33.89928,66.67401 3.10624,19.51956 -2.2691,39.71834 -16.09141,54.12601 -41.36297,55.31189 -86.88895,107.89845 -126.25979,164.42219 -23.1032,39.63711 -31.80411,85.2419 -36.47455,130.31961 -4.90855,42.00166 -7.31551,84.5072 -10.91805,126.60868 -0.26834,18.23326 -2.95113,36.68804 0.2455,54.60504 168.2934,1.4426 336.6291,4.1638 504.90659,0.032 3.62067,-38.80912 -1.52676,-78.31485 -1.16179,-117.49584 -4.13577,-172.6314 -3.02171,-345.67776 -15.29264,-517.86246 -4.66066,-41.90093 -9.75274,-85.29949 -31.39758,-122.60333 -16.40801,-29.64601 -32.97896,-61.14099 -59.73711,-82.76542 -43.03884,-25.4982 -90.12153,-47.6608 -140.66374,-50.5313 -23.52728,-1.8777 -47.91247,4.09844 -71.36176,-0.35908 C 392.18844,127.77354 386.24054,109.27933 373.11268,96.36176 365.45526,88.092293 358.01421,77.163904 349.01895,71.230269 Z M 277.89396,235.32876 c 15.90039,0.88692 15.0155,22.50222 5.35854,30.73073 -14.30665,12.48245 -29.70836,25.15056 -47.26804,32.53008 -8.90842,3.32149 -21.70042,0.31277 -22.12865,-10.94595 -0.76654,-19.30286 19.81744,-29.40469 33.10617,-39.43541 9.53279,-5.59779 19.54154,-12.44386 30.93198,-12.87945 z"
         style="opacity:0;fill:#0eff65;fill-opacity:1;fill-rule:nonzero;stroke:#483737;stroke-width:2.02030516" />
      <path
         transform="scale(0.26458333)"
         inkscape:connector-curvature="0"
         id="path911"
         d="m 349.01895,71.230269 c -4.48187,27.024005 2.35412,60.391891 -20.64104,80.701721 -29.99474,23.79332 -71.63113,27.99868 -98.92409,56.11299 -31.00868,28.50113 -38.25826,72.23812 -58.93592,107.45675 -17.85898,31.81481 -45.87962,56.36593 -70.15431,83.16002 -18.399865,20.98758 -43.553393,37.77352 -54.773152,64.08549 -3.94699,20.14319 11.148745,39.27405 28.288218,48.15193 13.407071,7.54303 26.511914,17.66652 40.564894,22.76036 55.53227,-4.02461 108.47239,-28.56352 149.02754,-66.44335 29.56945,-26.88416 72.76371,-45.28258 112.47081,-32.15342 25.36151,11.34664 29.95494,42.23595 33.89928,66.67401 3.10624,19.51956 -2.2691,39.71834 -16.09141,54.12601 -41.36297,55.31189 -86.88895,107.89845 -126.25979,164.42219 -23.1032,39.63711 -31.80411,85.2419 -36.47455,130.31961 -4.90855,42.00166 -7.31551,84.5072 -10.91805,126.60868 -0.26834,18.23326 -2.95113,36.68804 0.2455,54.60504 168.2934,1.4426 336.6291,4.1638 504.90659,0.032 3.62067,-38.80912 -1.52676,-78.31485 -1.16179,-117.49584 -4.13577,-172.6314 -3.02171,-345.67776 -15.29264,-517.86246 -4.66066,-41.90093 -9.75274,-85.29949 -31.39758,-122.60333 -16.40801,-29.64601 -32.97896,-61.14099 -59.73711,-82.76542 -43.03884,-25.4982 -90.12153,-47.6608 -140.66374,-50.5313 -23.52728,-1.8777 -47.91247,4.09844 -71.36176,-0.35908 C 392.18844,127.77354 386.24054,109.27933 373.11268,96.36176 365.45526,88.092293 358.01421,77.163904 349.01895,71.230269 Z M 277.89396,235.32876 c 15.90039,0.88692 15.0155,22.50222 5.35854,30.73073 -14.30665,12.48245 -29.70836,25.15056 -47.26804,32.53008 -8.90842,3.32149 -21.70042,0.31277 -22.12865,-10.94595 -0.76654,-19.30286 19.81744,-29.40469 33.10617,-39.43541 9.53279,-5.59779 19.54154,-12.44386 30.93198,-12.87945 z"
         style="opacity:0;fill:url(#linearGradient919);fill-opacity:1;fill-rule:nonzero;stroke:#483737;stroke-width:2.02030516" />
      <path
         transform="scale(0.26458333)"
         inkscape:connector-curvature="0"
         id="path921"
         d="m 349.01895,71.230269 c -4.48187,27.024005 2.35412,60.391891 -20.64104,80.701721 -29.99474,23.79332 -71.63113,27.99868 -98.92409,56.11299 -31.00868,28.50113 -38.25826,72.23812 -58.93592,107.45675 -17.85898,31.81481 -45.87962,56.36593 -70.15431,83.16002 -18.399865,20.98758 -43.553393,37.77352 -54.773152,64.08549 -3.94699,20.14319 11.148745,39.27405 28.288218,48.15193 13.407071,7.54303 26.511914,17.66652 40.564894,22.76036 55.53227,-4.02461 108.47239,-28.56352 149.02754,-66.44335 29.56945,-26.88416 72.76371,-45.28258 112.47081,-32.15342 25.36151,11.34664 29.95494,42.23595 33.89928,66.67401 3.10624,19.51956 -2.2691,39.71834 -16.09141,54.12601 -41.36297,55.31189 -86.88895,107.89845 -126.25979,164.42219 -23.1032,39.63711 -31.80411,85.2419 -36.47455,130.31961 -4.90855,42.00166 -7.31551,84.5072 -10.91805,126.60868 -0.26834,18.23326 -2.95113,36.68804 0.2455,54.60504 168.2934,1.4426 336.6291,4.1638 504.90659,0.032 3.62067,-38.80912 -1.52676,-78.31485 -1.16179,-117.49584 -4.13577,-172.6314 -3.02171,-345.67776 -15.29264,-517.86246 -4.66066,-41.90093 -9.75274,-85.29949 -31.39758,-122.60333 -16.40801,-29.64601 -32.97896,-61.14099 -59.73711,-82.76542 -43.03884,-25.4982 -90.12153,-47.6608 -140.66374,-50.5313 -23.52728,-1.8777 -47.91247,4.09844 -71.36176,-0.35908 C 392.18844,127.77354 386.24054,109.27933 373.11268,96.36176 365.45526,88.092293 358.01421,77.163904 349.01895,71.230269 Z M 277.89396,235.32876 c 15.90039,0.88692 15.0155,22.50222 5.35854,30.73073 -14.30665,12.48245 -29.70836,25.15056 -47.26804,32.53008 -8.90842,3.32149 -21.70042,0.31277 -22.12865,-10.94595 -0.76654,-19.30286 19.81744,-29.40469 33.10617,-39.43541 9.53279,-5.59779 19.54154,-12.44386 30.93198,-12.87945 z"
         style="opacity:0;fill:#0eff65;fill-opacity:1;fill-rule:nonzero;stroke:#483737;stroke-width:2.02030516" />
      <path
         transform="scale(0.26458333)"
         inkscape:connector-curvature="0"
         id="path923"
         d="m 349.01895,71.230269 c -4.48187,27.024005 2.35412,60.391891 -20.64104,80.701721 -29.99474,23.79332 -71.63113,27.99868 -98.92409,56.11299 -31.00868,28.50113 -38.25826,72.23812 -58.93592,107.45675 -17.85898,31.81481 -45.87962,56.36593 -70.15431,83.16002 -18.399865,20.98758 -43.553393,37.77352 -54.773152,64.08549 -3.94699,20.14319 11.148745,39.27405 28.288218,48.15193 13.407071,7.54303 26.511914,17.66652 40.564894,22.76036 55.53227,-4.02461 108.47239,-28.56352 149.02754,-66.44335 29.56945,-26.88416 72.76371,-45.28258 112.47081,-32.15342 25.36151,11.34664 29.95494,42.23595 33.89928,66.67401 3.10624,19.51956 -2.2691,39.71834 -16.09141,54.12601 -41.36297,55.31189 -86.88895,107.89845 -126.25979,164.42219 -23.1032,39.63711 -31.80411,85.2419 -36.47455,130.31961 -4.90855,42.00166 -7.31551,84.5072 -10.91805,126.60868 -0.26834,18.23326 -2.95113,36.68804 0.2455,54.60504 168.2934,1.4426 336.6291,4.1638 504.90659,0.032 3.62067,-38.80912 -1.52676,-78.31485 -1.16179,-117.49584 -4.13577,-172.6314 -3.02171,-345.67776 -15.29264,-517.86246 -4.66066,-41.90093 -9.75274,-85.29949 -31.39758,-122.60333 -16.40801,-29.64601 -32.97896,-61.14099 -59.73711,-82.76542 -43.03884,-25.4982 -90.12153,-47.6608 -140.66374,-50.5313 -23.52728,-1.8777 -47.91247,4.09844 -71.36176,-0.35908 C 392.18844,127.77354 386.24054,109.27933 373.11268,96.36176 365.45526,88.092293 358.01421,77.163904 349.01895,71.230269 Z M 277.89396,235.32876 c 15.90039,0.88692 15.0155,22.50222 5.35854,30.73073 -14.30665,12.48245 -29.70836,25.15056 -47.26804,32.53008 -8.90842,3.32149 -21.70042,0.31277 -22.12865,-10.94595 -0.76654,-19.30286 19.81744,-29.40469 33.10617,-39.43541 9.53279,-5.59779 19.54154,-12.44386 30.93198,-12.87945 z"
         style="opacity:0;fill:#0eff65;fill-opacity:1;fill-rule:nonzero;stroke:#483737;stroke-width:2.02030516" />
      <path
         transform="scale(0.26458333)"
         inkscape:connector-curvature="0"
         id="path928"
         d="m 350.29604,72.54031 c -4.56667,27.208517 1.57972,61.43277 -21.80509,81.46722 -28.67443,21.08514 -67.10667,25.67395 -93.10371,50.89828 -43.41487,36.38859 -45.46424,99.89004 -83.85055,140.37964 -32.227,37.76152 -70.645513,70.14459 -100.790339,109.63311 -13.140467,19.7441 3.119828,44.00451 20.937265,54.18288 14.161325,8.61867 28.792154,18.88772 44.008284,24.85497 53.59919,-3.17566 105.73763,-26.16503 145.12277,-62.95826 29.15787,-26.74193 69.63687,-47.0382 109.96064,-37.98333 26.11103,6.04853 34.35375,35.83203 39.06844,58.70723 4.68709,21.4691 1.95693,45.20625 -13.11964,62.12721 -41.48305,56.78755 -88.21765,109.70606 -128.35301,167.43784 -29.93058,52.47546 -34.61773,113.90268 -40.46108,172.68798 -2.30777,45.91511 -9.69757,91.45715 -6.39265,137.36182 51.82933,4.395 104.253,1.7314 156.36057,2.6867 116.27969,-0.1611 232.6296,0.241 348.86171,-1.7121 0.80315,-97.84999 -2.36058,-195.73929 -3.66917,-293.59355 C 720.0975,624.38072 718.50818,509.61739 709.89455,395.72598 706.58691,351.12732 697.6552,306.28736 675.34669,267.00962 660.16783,239.09443 643.1386,210.75135 617.87992,190.7834 577.15766,167.28936 534.05487,146.76654 486.87576,141.31355 c -26.24467,-1.71012 -53.00723,3.82793 -78.92211,-1.06934 -13.89626,-6.53213 -15.33179,-24.53832 -26.05482,-34.59378 -9.7668,-11.996518 -19.84297,-23.880833 -31.441,-34.163677 z m -69.88599,163.06072 c 15.29901,2.02155 13.70248,23.16408 4.05245,31.08981 -16.00194,14.23155 -33.78837,28.87262 -55.04542,33.83223 -14.69913,0.6913 -18.05058,-18.37145 -9.60828,-27.62137 14.69577,-17.43757 35.31009,-30.35262 57.05782,-37.01262 1.16709,-0.20661 2.35695,-0.3351 3.54343,-0.28805 z"
         style="opacity:0;fill:#0eff65;fill-opacity:1;fill-rule:nonzero;stroke:#483737;stroke-width:2.02030516" />
      <path
         transform="scale(0.26458333)"
         inkscape:connector-curvature="0"
         id="path930"
         d="m 350.29604,72.54031 c -4.56667,27.208517 1.57972,61.43277 -21.80509,81.46722 -28.67443,21.08514 -67.10667,25.67395 -93.10371,50.89828 -43.41487,36.38859 -45.46424,99.89004 -83.85055,140.37964 -32.227,37.76152 -70.645513,70.14459 -100.790339,109.63311 -13.140467,19.7441 3.119828,44.00451 20.937265,54.18288 14.161325,8.61867 28.792154,18.88772 44.008284,24.85497 53.59919,-3.17566 105.73763,-26.16503 145.12277,-62.95826 29.15787,-26.74193 69.63687,-47.0382 109.96064,-37.98333 26.11103,6.04853 34.35375,35.83203 39.06844,58.70723 4.68709,21.4691 1.95693,45.20625 -13.11964,62.12721 -41.48305,56.78755 -88.21765,109.70606 -128.35301,167.43784 -29.93058,52.47546 -34.61773,113.90268 -40.46108,172.68798 -2.30777,45.91511 -9.69757,91.45715 -6.39265,137.36182 51.82933,4.395 104.253,1.7314 156.36057,2.6867 116.27969,-0.1611 232.6296,0.241 348.86171,-1.7121 0.80315,-97.84999 -2.36058,-195.73929 -3.66917,-293.59355 C 720.0975,624.38072 718.50818,509.61739 709.89455,395.72598 706.58691,351.12732 697.6552,306.28736 675.34669,267.00962 660.16783,239.09443 643.1386,210.75135 617.87992,190.7834 577.15766,167.28936 534.05487,146.76654 486.87576,141.31355 c -26.24467,-1.71012 -53.00723,3.82793 -78.92211,-1.06934 -13.89626,-6.53213 -15.33179,-24.53832 -26.05482,-34.59378 -9.7668,-11.996518 -19.84297,-23.880833 -31.441,-34.163677 z m -69.88599,163.06072 c 15.29901,2.02155 13.70248,23.16408 4.05245,31.08981 -16.00194,14.23155 -33.78837,28.87262 -55.04542,33.83223 -14.69913,0.6913 -18.05058,-18.37145 -9.60828,-27.62137 14.69577,-17.43757 35.31009,-30.35262 57.05782,-37.01262 1.16709,-0.20661 2.35695,-0.3351 3.54343,-0.28805 z"
         style="opacity:0;fill:#0eff65;fill-opacity:1;fill-rule:nonzero;stroke:#483737;stroke-width:2.02030516" />
      <path
         transform="scale(0.26458333)"
         inkscape:connector-curvature="0"
         id="path932"
         d="m 350.29604,72.54031 c -4.56667,27.208517 1.57972,61.43277 -21.80509,81.46722 -28.67443,21.08514 -67.10667,25.67395 -93.10371,50.89828 -43.41487,36.38859 -45.46424,99.89004 -83.85055,140.37964 -32.227,37.76152 -70.645513,70.14459 -100.790339,109.63311 -13.140467,19.7441 3.119828,44.00451 20.937265,54.18288 14.161325,8.61867 28.792154,18.88772 44.008284,24.85497 53.59919,-3.17566 105.73763,-26.16503 145.12277,-62.95826 29.15787,-26.74193 69.63687,-47.0382 109.96064,-37.98333 26.11103,6.04853 34.35375,35.83203 39.06844,58.70723 4.68709,21.4691 1.95693,45.20625 -13.11964,62.12721 -41.48305,56.78755 -88.21765,109.70606 -128.35301,167.43784 -29.93058,52.47546 -34.61773,113.90268 -40.46108,172.68798 -2.30777,45.91511 -9.69757,91.45715 -6.39265,137.36182 51.82933,4.395 104.253,1.7314 156.36057,2.6867 116.27969,-0.1611 232.6296,0.241 348.86171,-1.7121 0.80315,-97.84999 -2.36058,-195.73929 -3.66917,-293.59355 C 720.0975,624.38072 718.50818,509.61739 709.89455,395.72598 706.58691,351.12732 697.6552,306.28736 675.34669,267.00962 660.16783,239.09443 643.1386,210.75135 617.87992,190.7834 577.15766,167.28936 534.05487,146.76654 486.87576,141.31355 c -26.24467,-1.71012 -53.00723,3.82793 -78.92211,-1.06934 -13.89626,-6.53213 -15.33179,-24.53832 -26.05482,-34.59378 -9.7668,-11.996518 -19.84297,-23.880833 -31.441,-34.163677 z m -69.88599,163.06072 c 15.29901,2.02155 13.70248,23.16408 4.05245,31.08981 -16.00194,14.23155 -33.78837,28.87262 -55.04542,33.83223 -14.69913,0.6913 -18.05058,-18.37145 -9.60828,-27.62137 14.69577,-17.43757 35.31009,-30.35262 57.05782,-37.01262 1.16709,-0.20661 2.35695,-0.3351 3.54343,-0.28805 z"
         style="opacity:0;fill:#0eff65;fill-opacity:1;fill-rule:nonzero;stroke:#483737;stroke-width:2.02030516" />
      <path
         transform="scale(0.26458333)"
         inkscape:connector-curvature="0"
         id="path934"
         d="m 350.29604,72.54031 c -4.56667,27.208517 1.57972,61.43277 -21.80509,81.46722 -28.67443,21.08514 -67.10667,25.67395 -93.10371,50.89828 -43.41487,36.38859 -45.46424,99.89004 -83.85055,140.37964 -32.227,37.76152 -70.645513,70.14459 -100.790339,109.63311 -13.140467,19.7441 3.119828,44.00451 20.937265,54.18288 14.161325,8.61867 28.792154,18.88772 44.008284,24.85497 53.59919,-3.17566 105.73763,-26.16503 145.12277,-62.95826 29.15787,-26.74193 69.63687,-47.0382 109.96064,-37.98333 26.11103,6.04853 34.35375,35.83203 39.06844,58.70723 4.68709,21.4691 1.95693,45.20625 -13.11964,62.12721 -41.48305,56.78755 -88.21765,109.70606 -128.35301,167.43784 -29.93058,52.47546 -34.61773,113.90268 -40.46108,172.68798 -2.30777,45.91511 -9.69757,91.45715 -6.39265,137.36182 51.82933,4.395 104.253,1.7314 156.36057,2.6867 116.27969,-0.1611 232.6296,0.241 348.86171,-1.7121 0.80315,-97.84999 -2.36058,-195.73929 -3.66917,-293.59355 C 720.0975,624.38072 718.50818,509.61739 709.89455,395.72598 706.58691,351.12732 697.6552,306.28736 675.34669,267.00962 660.16783,239.09443 643.1386,210.75135 617.87992,190.7834 577.15766,167.28936 534.05487,146.76654 486.87576,141.31355 c -26.24467,-1.71012 -53.00723,3.82793 -78.92211,-1.06934 -13.89626,-6.53213 -15.33179,-24.53832 -26.05482,-34.59378 -9.7668,-11.996518 -19.84297,-23.880833 -31.441,-34.163677 z m -69.88599,163.06072 c 15.29901,2.02155 13.70248,23.16408 4.05245,31.08981 -16.00194,14.23155 -33.78837,28.87262 -55.04542,33.83223 -14.69913,0.6913 -18.05058,-18.37145 -9.60828,-27.62137 14.69577,-17.43757 35.31009,-30.35262 57.05782,-37.01262 1.16709,-0.20661 2.35695,-0.3351 3.54343,-0.28805 z"
         style="opacity:0;fill:#0eff65;fill-opacity:1;fill-rule:nonzero;stroke:#483737;stroke-width:2.02030516" />
      <path
         transform="scale(0.26458333)"
         inkscape:connector-curvature="0"
         id="path936"
         d="m 350.29604,72.54031 c -4.56667,27.208517 1.57972,61.43277 -21.80509,81.46722 -28.67443,21.08514 -67.10667,25.67395 -93.10371,50.89828 -43.41487,36.38859 -45.46424,99.89004 -83.85055,140.37964 -32.227,37.76152 -70.645513,70.14459 -100.790339,109.63311 -13.140467,19.7441 3.119828,44.00451 20.937265,54.18288 14.161325,8.61867 28.792154,18.88772 44.008284,24.85497 53.59919,-3.17566 105.73763,-26.16503 145.12277,-62.95826 29.15787,-26.74193 69.63687,-47.0382 109.96064,-37.98333 26.11103,6.04853 34.35375,35.83203 39.06844,58.70723 4.68709,21.4691 1.95693,45.20625 -13.11964,62.12721 -41.48305,56.78755 -88.21765,109.70606 -128.35301,167.43784 -29.93058,52.47546 -34.61773,113.90268 -40.46108,172.68798 -2.30777,45.91511 -9.69757,91.45715 -6.39265,137.36182 51.82933,4.395 104.253,1.7314 156.36057,2.6867 116.27969,-0.1611 232.6296,0.241 348.86171,-1.7121 0.80315,-97.84999 -2.36058,-195.73929 -3.66917,-293.59355 C 720.0975,624.38072 718.50818,509.61739 709.89455,395.72598 706.58691,351.12732 697.6552,306.28736 675.34669,267.00962 660.16783,239.09443 643.1386,210.75135 617.87992,190.7834 577.15766,167.28936 534.05487,146.76654 486.87576,141.31355 c -26.24467,-1.71012 -53.00723,3.82793 -78.92211,-1.06934 -13.89626,-6.53213 -15.33179,-24.53832 -26.05482,-34.59378 -9.7668,-11.996518 -19.84297,-23.880833 -31.441,-34.163677 z m -69.88599,163.06072 c 15.29901,2.02155 13.70248,23.16408 4.05245,31.08981 -16.00194,14.23155 -33.78837,28.87262 -55.04542,33.83223 -14.69913,0.6913 -18.05058,-18.37145 -9.60828,-27.62137 14.69577,-17.43757 35.31009,-30.35262 57.05782,-37.01262 1.16709,-0.20661 2.35695,-0.3351 3.54343,-0.28805 z"
         style="opacity:0;fill:#0eff65;fill-opacity:1;fill-rule:nonzero;stroke:#483737;stroke-width:2.02030516;filter:url(#filter990)" />
      <path
         transform="scale(0.26458333)"
         inkscape:connector-curvature="0"
         id="path994"
         d="m 350.29604,72.54031 c -4.56667,27.208517 1.57972,61.43277 -21.80509,81.46722 -28.67443,21.08514 -67.10667,25.67395 -93.10371,50.89828 -43.41487,36.38859 -45.46424,99.89004 -83.85055,140.37964 -32.227,37.76152 -70.645513,70.14459 -100.790339,109.63311 -13.140467,19.7441 3.119828,44.00451 20.937265,54.18288 14.161325,8.61867 28.792154,18.88772 44.008284,24.85497 53.59919,-3.17566 105.73763,-26.16503 145.12277,-62.95826 29.15787,-26.74193 69.63687,-47.0382 109.96064,-37.98333 26.11103,6.04853 34.35375,35.83203 39.06844,58.70723 4.68709,21.4691 1.95693,45.20625 -13.11964,62.12721 -41.48305,56.78755 -88.21765,109.70606 -128.35301,167.43784 -29.93058,52.47546 -34.61773,113.90268 -40.46108,172.68798 -2.30777,45.91511 -9.69757,91.45715 -6.39265,137.36182 51.82933,4.395 104.253,1.7314 156.36057,2.6867 116.27969,-0.1611 232.6296,0.241 348.86171,-1.7121 0.80315,-97.84999 -2.36058,-195.73929 -3.66917,-293.59355 C 720.0975,624.38072 718.50818,509.61739 709.89455,395.72598 706.58691,351.12732 697.6552,306.28736 675.34669,267.00962 660.16783,239.09443 643.1386,210.75135 617.87992,190.7834 577.15766,167.28936 534.05487,146.76654 486.87576,141.31355 c -26.24467,-1.71012 -53.00723,3.82793 -78.92211,-1.06934 -13.89626,-6.53213 -15.33179,-24.53832 -26.05482,-34.59378 -9.7668,-11.996518 -19.84297,-23.880833 -31.441,-34.163677 z m -69.88599,163.06072 c 15.29901,2.02155 13.70248,23.16408 4.05245,31.08981 -16.00194,14.23155 -33.78837,28.87262 -55.04542,33.83223 -14.69913,0.6913 -18.05058,-18.37145 -9.60828,-27.62137 14.69577,-17.43757 35.31009,-30.35262 57.05782,-37.01262 1.16709,-0.20661 2.35695,-0.3351 3.54343,-0.28805 z"
         style="opacity:0;fill:#0eff65;fill-opacity:1;fill-rule:nonzero;stroke:#483737;stroke-width:2.02030516" />
      <path
         transform="scale(0.26458333)"
         inkscape:connector-curvature="0"
         id="path1006"
         d="m 347.62357,62.677506 c -6.20525,5.847246 -2.81574,17.600145 -4.89579,25.538399 -1.17808,22.231405 -0.64304,50.096705 -22.09422,63.603615 -34.43586,20.62975 -77.6538,29.02666 -103.63928,62.09676 -31.20503,40.17759 -38.13447,94.72514 -74.02919,131.98275 -31.05116,36.82536 -69.203459,67.46189 -97.621773,106.45667 -12.59574,17.15877 -2.22637,40.24252 11.178759,53.38814 17.586667,12.54995 35.924167,25.00772 56.035844,33.0154 43.3933,1.40773 85.76457,-15.93245 121.78629,-39.06238 30.94239,-21.93417 57.51958,-53.06838 96.26067,-60.5797 22.0086,-5.26424 52.35322,-3.71192 62.5742,20.29381 9.78097,22.86571 16.94139,50.6367 8.69285,75.20507 -25.63484,40.34032 -57.99751,76.02969 -86.76039,114.14925 -27.97835,36.36234 -60.29241,71.72916 -72.46887,117.17962 -20.89861,69.06081 -20.59915,142.01811 -27.20419,213.28607 0.16189,18.03143 -5.04171,37.28942 1.06256,54.69632 8.23059,7.5054 21.74201,3.442 31.91789,5.0667 160.0502,0.987 320.1337,1.2245 480.17025,-1.0418 8.56389,-2.0661 3.20122,-15.1724 4.93634,-21.4381 -2.6916,-197.10657 -4.81447,-394.32537 -15.29394,-591.20441 -3.50789,-52.52619 -8.00748,-107.26018 -34.22722,-154.13039 -14.98822,-31.46449 -34.58501,-61.77779 -61.27995,-84.474 -41.91359,-25.2133 -88.15353,-46.02385 -137.15583,-51.52173 -25.04948,-0.4531 -50.09102,1.00661 -75.13403,1.42842 C 397.04774,119.23768 387.53809,99.227994 371.3787,83.862216 363.81312,76.976117 357.48902,66.167306 347.62357,62.677506 Z M 279.43039,242.58331 c 11.81173,1.10984 5.23764,17.77749 -1.62572,21.92741 -14.82051,12.08159 -30.62605,26.03497 -49.55666,29.90999 -12.34264,-3.70122 -5.01366,-19.90996 2.75819,-24.88684 14.37611,-11.01919 29.61343,-25.4693 48.42419,-26.95056 z"
         style="opacity:1;fill:#386c8d;fill-opacity:1;fill-rule:nonzero;stroke:#000000;stroke-width:2.02030516" />
    </g>
  </g>
</svg>
